<?xml version="1.0" encoding="utf-8"?>
<!-- Generator: Adobe Illustrator 25.1.0, SVG Export Plug-In . SVG Version: 6.00 Build 0)  -->
<svg version="1.1" id="图层_1" xmlns="http://www.w3.org/2000/svg" xmlns:xlink="http://www.w3.org/1999/xlink" x="0px" y="0px"
	 viewBox="0 0 283.5 70.9" style="enable-background:new 0 0 283.5 70.9;" xml:space="preserve">
<style type="text/css">
	.st0{fill:#231F20;}
	.st1{fill:#000100;}
	.st2{fill:#FFFFFF;}
</style>
<g id="LINE">
	<path class="st0" d="M1.8,8.2c0,0-0.1-0.1-0.1-0.2V7.9l2.5-2.2c0.1-0.1,0.1-0.1,0.2,0s0.1,0.1,0,0.2l0,0L1.8,8.2L1.8,8.2z"/>
</g>
<g id="LINE-2">
	<path class="st0" d="M4.3,65.2L4.3,65.2L1.8,63c-0.1,0-0.1-0.1,0-0.2c0-0.1,0.1-0.1,0.2,0l0,0L4.5,65c0.1,0.1,0.1,0.1,0,0.2l0,0
		C4.4,65.2,4.4,65.2,4.3,65.2z"/>
</g>
<g id="LINE-3">
	<path class="st0" d="M1.7,62.6L1.7,62.6c-0.1,0-0.1-0.1-0.1-0.2L1.9,61c0-0.1,0.1-0.1,0.2-0.1s0.1,0.1,0.1,0.2l0,0l-0.3,1.5
		C1.9,62.6,1.8,62.6,1.7,62.6z"/>
</g>
<g id="LINE-4">
	<path class="st0" d="M20.2,24.2L20.2,24.2c-0.1,0-0.1-0.1-0.1-0.2l0,0l0,0c0.1,0,0.1,0,0.2,0c0,0.1,0,0.1,0,0.2
		C20.2,24.2,20.2,24.2,20.2,24.2z"/>
</g>
<g id="LINE-5">
	<path class="st0" d="M20.2,24.3L20.2,24.3c-0.1-0.1-0.1-0.1,0-0.2l0,0l0,0c0.1-0.1,0.1-0.1,0.2,0l0,0c0.1,0,0.1,0.1,0,0.2l-0.1,0.1
		L20.2,24.3z"/>
</g>
<g id="LINE-6">
	<path class="st0" d="M20.3,24.2L20.3,24.2c0,0-0.1-0.1,0-0.2l0,0l0,0c0.1-0.1,0.1-0.1,0.2,0l0,0C20.5,24.1,20.4,24.2,20.3,24.2
		L20.3,24.2z"/>
</g>
<g id="LINE-7">
	<path class="st0" d="M20.3,24.2L20.3,24.2c-0.1,0-0.1-0.1-0.1-0.2l0,0c0.1,0,0.1,0,0.2,0c0,0.1,0,0.1,0,0.2
		C20.3,24.2,20.3,24.2,20.3,24.2z"/>
</g>
<g id="LINE-8">
	<path class="st0" d="M20.7,23.2L20.7,23.2c-0.1-0.1-0.1-0.1-0.1-0.2l0,0c0.1-0.1,0.1-0.1,0.2,0l0,0c0,0.1,0,0.1,0,0.2
		C20.8,23.2,20.8,23.2,20.7,23.2z"/>
</g>
<g id="LINE-9">
	<path class="st0" d="M20.7,23.2L20.7,23.2c-0.1-0.1-0.1-0.1-0.1-0.2l0,0c0.1,0,0.1,0,0.2,0c0,0.1,0,0.1,0,0.2
		C20.8,23.3,20.8,23.3,20.7,23.2z"/>
</g>
<g id="LINE-10">
	<path class="st0" d="M22.7,65.2H4.5c-0.1,0-0.1-0.1-0.1-0.1C4.4,65,4.5,65,4.5,65l0,0h18.2c0.1,0,0.1,0.1,0.1,0.1
		C22.8,65.2,22.7,65.2,22.7,65.2z"/>
</g>
<g id="LINE-11">
	<path class="st0" d="M22.8,65.2H4.3c-0.1,0-0.1-0.1-0.1-0.1l0,0c0-0.1,0-0.1,0.1-0.1l0,0h18.4c0.1,0,0.1,0,0.2,0.1l0,0
		C22.9,65.1,22.9,65.2,22.8,65.2L22.8,65.2z"/>
</g>
<g id="LINE-12">
	<path class="st0" d="M25.3,63H1.8c-0.1,0-0.1-0.1-0.1-0.1l0,0c0-0.1,0.1-0.1,0.1-0.1l0,0h23.4C25.3,62.8,25.3,62.9,25.3,63L25.3,63
		C25.4,62.9,25.4,63,25.3,63L25.3,63z"/>
</g>
<g id="LINE-13">
	<path class="st0" d="M25.4,62.6H1.7c-0.1,0-0.1-0.1-0.1-0.2c0-0.1,0.1-0.1,0.1-0.1l0,0h23.7c0.1,0,0.1,0.1,0.2,0.1
		C25.5,62.6,25.5,62.6,25.4,62.6z"/>
</g>
<g id="LINE-14">
	<path class="st0" d="M25.1,61.1H2c-0.1,0-0.1-0.1-0.1-0.1l0,0c0-0.1,0.1-0.1,0.1-0.1l0,0h23.1c0.1,0,0.1,0.1,0.1,0.1l0,0
		C25.3,61.1,25.2,61.1,25.1,61.1L25.1,61.1z"/>
</g>
<g id="LINE-15">
	<path class="st0" d="M25.4,62.6c-0.1,0-0.1-0.1-0.1-0.1L25,61c0-0.1,0-0.2,0.1-0.2s0.2,0,0.2,0.1V61l0.3,1.5
		C25.6,62.6,25.5,62.7,25.4,62.6L25.4,62.6z"/>
</g>
<g id="LINE-16">
	<path class="st0" d="M25.6,33.9c-0.1,0-0.1-0.1-0.2-0.1V19.3c0-0.1,0.1-0.1,0.2-0.1s0.1,0.1,0.1,0.1l0,0v14.5
		C25.8,33.8,25.7,33.9,25.6,33.9L25.6,33.9z"/>
</g>
<g id="LINE-17">
	<path class="st0" d="M25.6,33.9c-0.1,0-0.1-0.1-0.1-0.1l0,0V19.3c0-0.1,0.1-0.1,0.1-0.1l0,0c0.1,0,0.1,0.1,0.2,0.1v14.5
		C25.8,33.8,25.7,33.9,25.6,33.9z"/>
</g>
<g id="LINE-18">
	<path class="st0" d="M19.7,29.1c-0.1,0-0.1,0-0.1-0.1l0,0c0-0.1,0-0.1,0-0.2c0.1,0,0.1,0,0.2,0.1l0,0C19.8,29,19.8,29.1,19.7,29.1
		L19.7,29.1L19.7,29.1z"/>
</g>
<g id="LINE-19">
	<path class="st0" d="M19.7,29.1c-0.1,0-0.1,0-0.1-0.1l0,0c0-0.1,0-0.2,0.1-0.2s0.1,0,0.2,0.1l0,0C19.9,28.9,19.8,29,19.7,29.1
		C19.8,29.1,19.8,29.1,19.7,29.1L19.7,29.1z"/>
</g>
<g id="LINE-20">
	<path class="st0" d="M19.7,29.1c-0.1,0-0.1,0-0.1-0.1l0,0c0-0.1,0-0.2,0.1-0.2s0.2,0,0.2,0.1C19.8,29,19.8,29.1,19.7,29.1
		L19.7,29.1z"/>
</g>
<g id="LINE-21">
	<path class="st0" d="M19.7,29.1c-0.1,0-0.1,0-0.1-0.1l0,0c0-0.1,0-0.2,0.1-0.2s0.2,0,0.2,0.1l0,0C19.8,29,19.8,29,19.7,29.1
		L19.7,29.1z"/>
</g>
<g id="LINE-22">
	<path class="st0" d="M20.1,30.1H20l0,0c-0.1-0.1-0.1-0.1,0-0.2l0,0C20.1,29.9,20.2,29.9,20.1,30.1C20.2,30.1,20.2,30.1,20.1,30.1
		L20.1,30.1z"/>
</g>
<g id="LINE-23">
	<path class="st0" d="M20.1,30.1c0,0-0.1,0-0.1-0.1l0,0c0-0.1,0-0.1,0-0.2c0.1,0,0.2,0,0.2,0.1S20.2,30.1,20.1,30.1L20.1,30.1z"/>
</g>
<g id="LINE-24">
	<path class="st0" d="M25.6,33.2c-0.1,0-0.1,0-0.1-0.1l0,0c0-0.1,0-0.1,0-0.2c0.1-0.1,0.1-0.1,0.2,0l0,0l0,0
		C25.8,33,25.8,33.1,25.6,33.2C25.7,33.1,25.7,33.1,25.6,33.2L25.6,33.2z"/>
</g>
<g id="LINE-25">
	<path class="st0" d="M40.1,33.1C40,33.1,40,33,40.1,33.1L40.1,33.1l-0.1-13c0-0.1,0.1-0.1,0.1-0.1l0,0c0.1,0,0.1,0.1,0.2,0.1V33
		C40.2,33,40.2,33.1,40.1,33.1z"/>
</g>
<g id="LINE-26">
	<path class="st0" d="M40.5,32.7c-0.1,0-0.2-0.1-0.2-0.2l0,0v-12c0-0.1,0-0.1,0.1-0.2l0,0c0.1,0,0.1,0.1,0.1,0.1l0,0v12
		C40.6,32.6,40.6,32.7,40.5,32.7z"/>
</g>
<g id="LINE-27">
	<path class="st0" d="M40.7,31.1c-0.1,0-0.1-0.1-0.2-0.1v-8.8c0-0.1,0.1-0.1,0.2-0.1c0.1,0,0.1,0.1,0.1,0.1l0,0V31
		C40.8,31,40.8,31.1,40.7,31.1L40.7,31.1z"/>
</g>
<g id="LINE-28">
	<path class="st0" d="M25.6,20.1c-0.1,0-0.1,0-0.1-0.1l0,0c0-0.1,0-0.2,0-0.2c0.1,0,0.2,0,0.2,0l0,0c0.1,0.1,0.1,0.1,0,0.2l0,0
		L25.6,20.1z"/>
</g>
<g id="LINE-29">
	<path class="st0" d="M22.8,65.2h-0.1c-0.1-0.1-0.1-0.1,0-0.2l0,0l2.5-2.2c0.1-0.1,0.1-0.1,0.2,0s0.1,0.1,0,0.2l0,0l-2.5,2.2H22.8z"
		/>
</g>
<g id="LINE-30">
	<path class="st0" d="M22.8,34c-0.1,0-0.2,0-0.2-0.1s0-0.2,0.1-0.2h0.1l2.8-0.2c0.1,0,0.1,0,0.1,0.1l0,0c0,0.1,0,0.1-0.1,0.1
		c0,0,0,0-0.1,0L22.8,34L22.8,34z"/>
</g>
<g id="LINE-31">
	<path class="st0" d="M25.6,33.9c-0.1,0-0.1-0.1-0.1-0.1l0,0c0-0.1,0.1-0.1,0.1-0.2l14.5-0.8c0.1,0,0.1,0.1,0.2,0.1
		c0,0.1,0,0.1-0.1,0.1l0,0L25.6,33.9L25.6,33.9z"/>
</g>
<g id="LINE-32">
	<path class="st0" d="M22.8,34H4.3c-0.1,0-0.1-0.1-0.2-0.1c0-0.1,0.1-0.1,0.2-0.2h18.5c0.1,0,0.1,0.1,0.1,0.2C23,34,22.9,34,22.8,34
		L22.8,34z"/>
</g>
<g id="LINE-33">
	<path class="st0" d="M25.6,24.2L25.6,24.2c-0.1,0-0.1-0.1-0.2-0.2c0-0.1,0.1-0.2,0.2-0.1s0.2,0.1,0.1,0.2
		C25.8,24.1,25.7,24.2,25.6,24.2L25.6,24.2z"/>
</g>
<g id="LINE-34">
	<path class="st0" d="M25.3,8.2h-0.1L22.7,6c-0.1-0.1-0.1-0.1,0-0.2l0,0c0.1-0.1,0.1-0.1,0.2,0L25.4,8C25.4,8,25.4,8.1,25.3,8.2
		L25.3,8.2z"/>
</g>
<g id="LINE-35">
	<path class="st0" d="M25.6,22.7c-0.1,0-0.1-0.1-0.2-0.1c0-0.1,0-0.1,0.1-0.1l0,0l0,0c0.1,0,0.2,0.1,0.2,0.2l0,0
		C25.8,22.6,25.7,22.7,25.6,22.7z"/>
</g>
<g id="LINE-36">
	<path class="st0" d="M40.1,20.2L40.1,20.2l-14.5-0.8c-0.1,0-0.1-0.1-0.1-0.2s0-0.1,0.2-0.1l14.5,0.8c0.1,0,0.1,0.1,0.1,0.1l0,0
		C40.2,20.2,40.2,20.2,40.1,20.2z"/>
</g>
<g id="LINE-37">
	<path class="st0" d="M25.6,19.4L25.6,19.4l-1.8-0.1c-0.1,0-0.1-0.1-0.1-0.2s0.1-0.1,0.1-0.1l0,0l1.8,0.1c0.1,0,0.1,0,0.1,0.1
		c0,0,0,0,0,0.1C25.8,19.4,25.7,19.4,25.6,19.4L25.6,19.4z"/>
</g>
<g id="LINE-38">
	<path class="st0" d="M23.8,19.3H3.4c-0.1,0-0.1-0.1-0.1-0.1l0,0c0-0.1,0.1-0.1,0.1-0.1l0,0h20.4c0.1,0,0.1,0.1,0.2,0.1
		C23.9,19.3,23.8,19.3,23.8,19.3L23.8,19.3z"/>
</g>
<g id="LINE-39">
	<path class="st0" d="M25.4,8.6H1.7c-0.1,0-0.1-0.1-0.1-0.1l0,0c0-0.1,0.1-0.1,0.1-0.2h23.7c0.1,0,0.1,0.1,0.2,0.2
		C25.5,8.5,25.5,8.6,25.4,8.6z"/>
</g>
<g id="LINE-40">
	<path class="st0" d="M25.3,8.2H1.8c-0.1,0-0.1-0.1-0.1-0.1l0,0C1.7,8,1.7,8,1.8,8l0,0h23.4c0.1,0,0.1,0.1,0.1,0.1l0,0
		C25.4,8.1,25.4,8.2,25.3,8.2L25.3,8.2z"/>
</g>
<g id="LINE-41">
	<path class="st0" d="M22.8,6H4.3c0,0-0.1,0-0.1-0.1s0.1-0.1,0.1-0.1l0,0h18.4C22.8,5.8,22.8,5.8,22.8,6L22.8,6
		C22.9,6,22.9,6,22.8,6L22.8,6z"/>
</g>
<g id="LINE-42">
	<path class="st0" d="M22.7,6H4.5C4.4,6,4.3,5.9,4.3,5.8l0,0c0-0.1,0.1-0.1,0.1-0.2h18.2c0.1,0,0.1,0.1,0.1,0.2
		C22.8,5.9,22.7,6,22.7,6L22.7,6z"/>
</g>
<g id="ARC">
	<path class="st0" d="M1.8,63L1.8,63c-0.2-0.1-0.3-0.3-0.3-0.5c0-0.1,0.1-0.1,0.2-0.1l0,0c0.1,0,0.1,0.1,0.1,0.2
		c0,0.1,0,0.2,0.1,0.2C1.9,62.8,2,63,1.8,63C1.9,63,1.9,63,1.8,63z"/>
</g>
<g id="ARC-2">
	<path class="st0" d="M4.5,65.2c-0.1,0-0.2,0-0.2-0.1c-0.1,0-0.1-0.1-0.1-0.2s0.1-0.1,0.2-0.1c0,0,0.1,0,0.1,0.1l0,0
		c0.1,0,0.1,0.1,0.1,0.1C4.6,65.1,4.5,65.2,4.5,65.2L4.5,65.2z"/>
</g>
<g id="ARC-3">
	<path class="st0" d="M2,61.1L2,61.1c-0.1,0-0.1-0.1-0.1-0.2l0,0c3.2-17.3,3-35.1-0.3-52.4c0-0.1,0-0.2,0.1-0.2s0.1,0,0.2,0.1l0,0
		C5.2,25.8,5.3,43.6,2,61.1C2.1,61.1,2.1,61.1,2,61.1L2,61.1z"/>
</g>
<g id="ARC-4">
	<path class="st0" d="M1.7,8.6c-0.1,0-0.1,0-0.1-0.1c0-0.2,0-0.4,0.2-0.5C1.9,7.9,1.9,7.9,2,8l0,0c0,0,0,0.1-0.1,0.1
		c0,0.1,0,0.2,0,0.3C1.9,8.5,1.8,8.5,1.7,8.6L1.7,8.6z"/>
</g>
<g id="ARC-5">
	<path class="st0" d="M4.3,6L4.3,6C4.2,6,4.2,5.9,4.2,5.8l0,0c0.1-0.1,0.1-0.1,0.2-0.1s0.1,0.1,0.2,0.2C4.6,6,4.5,6,4.5,6l0,0
		C4.4,6,4.4,6,4.3,6z"/>
</g>
<g id="ARC-6">
	<path class="st0" d="M25.3,63h-0.1c-0.1-0.1-0.1-0.1,0-0.2l0,0c0.1-0.1,0.1-0.1,0.1-0.2c0-0.1,0-0.1,0.1-0.2l0,0
		c0.1,0,0.2,0,0.2,0.1C25.6,62.7,25.5,62.9,25.3,63L25.3,63z"/>
</g>
<g id="ARC-7">
	<path class="st0" d="M22.7,65.2c-0.1,0-0.1-0.1-0.1-0.1c0-0.1,0.1-0.1,0.1-0.1l0,0c0.1-0.1,0.1-0.1,0.2,0l0,0
		c0.1,0.1,0.1,0.1,0,0.2C22.8,65.2,22.7,65.2,22.7,65.2z"/>
</g>
<g id="ARC-8">
	<path class="st0" d="M20.8,23.2L20.8,23.2c-0.1,0-0.1-0.1-0.1-0.2l0,0l0,0c0.1-0.1,0.1-0.1,0.2,0l0,0c0,0.1,0,0.1,0,0.2l0,0
		C20.8,23.2,20.8,23.2,20.8,23.2z"/>
</g>
<g id="ARC-9">
	<path class="st0" d="M20.7,23.3L20.7,23.3c-0.1-0.1-0.1-0.1-0.1-0.2l0,0l0,0c0-0.1,0.1-0.1,0.2,0c0.1,0,0.1,0.1,0,0.2l0,0
		C20.8,23.3,20.8,23.3,20.7,23.3z"/>
</g>
<g id="ARC-10">
	<path class="st0" d="M20.2,24.2L20.2,24.2c-0.1-0.1-0.1-0.1,0-0.2l0,0l0,0c0.1,0,0.1,0,0.2,0c0,0.1,0,0.1-0.1,0.2l0,0l0,0
		C20.2,24.2,20.2,24.2,20.2,24.2z"/>
</g>
<g id="ARC-11">
	<path class="st0" d="M20,30L20,30c-0.1-0.1-0.1-0.1,0-0.2l0,0c0.1,0,0.2,0,0.2,0.1l0,0L20,30z"/>
</g>
<g id="ARC-12">
	<path class="st0" d="M19.7,29.1c-0.1,0-0.1,0-0.1-0.1l0,0c0-0.1,0-0.2,0.1-0.2s0.2,0,0.2,0.1l0,0c0,0.1,0,0.1,0,0.2H19.7z"/>
</g>
<g id="ARC-13">
	<path class="st0" d="M40.5,20.6c-0.1,0-0.1,0-0.1-0.1l0,0c0-0.1-0.1-0.3-0.2-0.3c-0.1,0-0.1-0.1-0.1-0.1l0,0c0-0.1,0-0.1,0.2-0.1
		c0.3,0,0.5,0.3,0.5,0.5l0,0C40.6,20.5,40.6,20.6,40.5,20.6L40.5,20.6z"/>
</g>
<g id="ARC-14">
	<path class="st0" d="M40.1,33.1C40,33.1,40,33,40.1,33.1L40.1,33.1c-0.1-0.2,0-0.2,0-0.3c0.1,0,0.2-0.1,0.2-0.3
		c0-0.1,0.1-0.1,0.1-0.1l0,0c0.1,0,0.1,0.1,0.1,0.1l0,0C40.6,32.9,40.4,33.1,40.1,33.1L40.1,33.1z"/>
</g>
<g id="ARC-15">
	<path class="st0" d="M25.6,30.7c-0.1,0-0.1-0.1-0.2-0.1c0-0.1,0.1-0.1,0.1-0.2l0,0c0.1,0,0.2,0,0.2,0.1
		C25.8,30.6,25.7,30.7,25.6,30.7L25.6,30.7z"/>
</g>
<g id="ARC-16">
	<path class="st0" d="M25.4,8.6L25.4,8.6c-0.1,0-0.1-0.1-0.1-0.2l0,0c0-0.1,0-0.2-0.1-0.2c-0.1-0.1-0.1-0.2,0-0.2s0.1-0.1,0.2,0
		c0.1,0.1,0.2,0.3,0.2,0.5C25.6,8.5,25.5,8.6,25.4,8.6z"/>
</g>
<g id="ARC-17">
	<path class="st0" d="M22.8,6L22.8,6L22.8,6c-0.2,0-0.2,0-0.2-0.1l0,0c0-0.1,0.1-0.2,0.2-0.2l0,0c0.1,0,0.2,0,0.2,0.1S23,6,22.9,6
		l0,0C22.9,6.1,22.8,6.1,22.8,6z"/>
</g>
<g id="ARC-18">
	<path class="st0" d="M23.8,19.3L23.8,19.3c-0.1,0-0.1-0.1-0.1-0.2c0.4-3.6,1-7.2,1.7-10.8c0-0.1,0.1-0.1,0.2-0.1l0,0
		c0.1,0,0.1,0.1,0.1,0.2c-0.7,3.5-1.2,7.2-1.7,10.7C23.9,19.3,23.8,19.3,23.8,19.3z"/>
</g>
<g id="ARC-19">
	<path class="st0" d="M25.1,61.1c-0.1,0-0.1,0-0.2-0.1c-1.6-8.9-2.4-18-2.3-27.1c0-0.1,0.1-0.1,0.2-0.2l0,0c0.1,0,0.1,0.1,0.1,0.2
		c0,9.1,0.7,18.2,2.4,27.1C25.3,61.1,25.2,61.2,25.1,61.1L25.1,61.1z"/>
</g>
<g id="SPLINE">
	<path class="st0" d="M22.8,34h-0.1l-0.3-0.3l-0.7-0.9c-0.3-0.5-0.6-0.9-0.9-1.2s-0.3-0.5-0.5-0.8S20,30.2,19.8,30
		c0,0-0.1-0.1,0-0.2l0,0c0.1-0.1,0.1-0.1,0.2,0l0,0c0.1,0.3,0.3,0.5,0.5,0.8s0.3,0.5,0.5,0.7s0.6,0.8,0.9,1.2s0.4,0.6,0.6,0.8
		l0.2,0.3C22.9,33.8,22.9,33.9,22.8,34C22.8,33.9,22.8,33.9,22.8,34L22.8,34z"/>
</g>
<g id="SPLINE-2">
	<path class="st0" d="M20.1,30C20,30,20,30,20,30c0-0.1-0.1-0.1-0.1-0.2c-0.1-0.2-0.2-0.5-0.3-0.7c0-0.1,0-0.2,0.1-0.2
		s0.2,0,0.2,0.1c0,0.2,0.2,0.5,0.3,0.7c0,0.1,0.1,0.2,0.1,0.2C20.2,29.9,20.2,30,20.1,30L20.1,30L20.1,30z"/>
</g>
<g id="SPLINE-3">
	<path class="st0" d="M19.7,29.1c-0.1,0-0.1,0-0.1-0.1c-0.1-0.4-0.2-0.8-0.3-1.2c-0.1-0.4-0.1-0.9,0-1.3c0-0.2,0-0.4,0.1-0.6
		l0.2-0.6c0.1-0.2,0.2-0.4,0.2-0.6s0.2-0.4,0.3-0.6c0.1,0,0.1,0,0.2,0c0,0,0.1,0.1,0,0.2c-0.1,0.2-0.2,0.4-0.3,0.5l-0.2,0.6
		c0,0.2-0.1,0.4-0.2,0.6c0,0.2-0.1,0.4-0.1,0.6s0,0.4,0,0.6s0,0.4,0,0.6c0.1,0.4,0.1,0.8,0.3,1.2C19.8,29,19.8,29,19.7,29.1
		L19.7,29.1z"/>
</g>
<g id="SPLINE-4">
	<path class="st0" d="M20.3,24.2L20.3,24.2c-0.1-0.1-0.1-0.1,0-0.2l0,0v-0.3c0.1-0.2,0.3-0.5,0.4-0.7c0.1-0.1,0.1-0.1,0.2,0l0,0
		c0,0.1,0,0.1,0,0.2c-0.1,0.2-0.3,0.4-0.4,0.7C20.4,24,20.4,24.1,20.3,24.2L20.3,24.2z"/>
</g>
<g id="SPLINE-5">
	<path class="st0" d="M20.8,23.2L20.8,23.2c-0.1-0.1-0.1-0.1,0-0.2l0,0c0.2-0.3,0.3-0.5,0.5-0.8l0.5-0.7c0.3-0.4,0.6-0.8,1-1.2
		s0.5-0.6,0.7-0.8l0.3-0.3c0.1-0.1,0.1-0.1,0.2,0l0,0c0.1,0.1,0.1,0.2,0,0.2l-0.3,0.3c-0.2,0.3-0.5,0.6-0.7,0.8l-0.9,1.2l-0.5,0.7
		c-0.2,0.3-0.4,0.5-0.5,0.8C21,23.2,20.9,23.2,20.8,23.2L20.8,23.2z"/>
</g>
<g id="SPLINE-6">
	<path class="st0" d="M25.6,21.6c-0.1,0-0.1-0.1-0.1-0.1l0,0v-0.3c0-0.3,0-0.5,0-0.8c0-0.1,0.1-0.1,0.1-0.1l0,0c0.1,0,0.1,0,0.1,0.1
		s0,0.5,0,0.8v0.3C25.8,21.5,25.7,21.6,25.6,21.6L25.6,21.6z"/>
</g>
<g id="LINE-43">
	<path class="st0" d="M223.4,8.2c-0.1,0-0.1-0.1-0.1-0.2V7.9l2.5-2.2c0.1-0.1,0.1-0.1,0.2,0c0.1,0.1,0.1,0.1,0,0.2l0,0l-2.5,2.2
		L223.4,8.2z"/>
</g>
<g id="LINE-44">
	<path class="st0" d="M225.9,65.2L225.9,65.2l-2.6-2.2c-0.1-0.1-0.1-0.1,0-0.2l0,0c0.1-0.1,0.1-0.1,0.2,0l0,0L226,65
		c0.1,0.1,0.1,0.1,0,0.2l0,0C226,65.2,226,65.2,225.9,65.2z"/>
</g>
<g id="LINE-45">
	<path class="st0" d="M223.2,62.6L223.2,62.6c-0.1,0-0.1-0.1-0.1-0.2l0.3-1.5c0-0.1,0.1-0.1,0.2-0.1c0.1,0,0.1,0.1,0.1,0.2l-0.3,1.5
		C223.4,62.6,223.3,62.6,223.2,62.6z"/>
</g>
<g id="LINE-46">
	<path class="st0" d="M241.7,24.2L241.7,24.2c0,0-0.1-0.1,0-0.2l0,0l0,0c0.1,0,0.1,0,0.2,0c0,0.1,0,0.1,0,0.2
		C241.9,24.3,241.8,24.2,241.7,24.2z"/>
</g>
<g id="LINE-47">
	<path class="st0" d="M241.7,24.3L241.7,24.3c-0.1-0.1-0.1-0.1,0-0.2l0,0l0,0c0.1-0.1,0.1-0.1,0.2,0l0,0c0,0.1,0,0.1,0,0.2
		C241.9,24.3,241.8,24.3,241.7,24.3z"/>
</g>
<g id="LINE-48">
	<path class="st0" d="M241.8,24.2L241.8,24.2c0,0-0.1-0.1,0-0.2l0,0l0,0c0.1-0.1,0.1-0.1,0.2,0l0,0c0,0.1,0,0.1,0,0.2
		C241.9,24.3,241.8,24.3,241.8,24.2z"/>
</g>
<g id="LINE-49">
	<path class="st0" d="M241.8,24.2L241.8,24.2c-0.1,0-0.1-0.1-0.1-0.2l0,0c0.1,0,0.1,0,0.2,0C241.9,24.1,241.9,24.1,241.8,24.2
		C241.8,24.2,241.8,24.2,241.8,24.2z"/>
</g>
<g id="LINE-50">
	<path class="st0" d="M242.3,23.2L242.3,23.2c-0.1-0.1-0.1-0.1-0.1-0.2l0,0c0.1,0,0.1,0,0.2,0C242.4,23.1,242.4,23.1,242.3,23.2
		C242.4,23.2,242.4,23.2,242.3,23.2z"/>
</g>
<g id="LINE-51">
	<path class="st0" d="M242.3,23.2L242.3,23.2c0-0.1,0-0.1,0-0.2l0,0c0.1,0,0.1,0,0.2,0c0.1,0.1,0.1,0.1,0,0.2l0,0
		C242.5,23.3,242.4,23.3,242.3,23.2z"/>
</g>
<g id="LINE-52">
	<path class="st0" d="M244.3,65.2h-18.2c-0.1,0-0.1-0.1-0.1-0.1c0-0.1,0.1-0.1,0.1-0.1l0,0h18.2c0.1,0,0.1,0.1,0.1,0.1
		C244.4,65.2,244.4,65.2,244.3,65.2z"/>
</g>
<g id="LINE-53">
	<path class="st0" d="M244.3,65.2h-18.4c-0.1,0-0.1-0.1-0.1-0.1c0-0.1,0-0.1,0.1-0.1l0,0h18.4c0.1,0,0.1,0,0.2,0.1l0,0
		C244.4,65.1,244.4,65.2,244.3,65.2L244.3,65.2z"/>
</g>
<g id="LINE-54">
	<path class="st0" d="M246.9,63h-23.4c-0.1,0-0.1-0.1-0.1-0.1l0,0c0-0.1,0.1-0.1,0.1-0.1h23.4c0.1,0,0.1,0.1,0.1,0.1
		S247,63,246.9,63L246.9,63z"/>
</g>
<g id="LINE-55">
	<path class="st0" d="M247,62.6h-23.7c-0.1,0-0.2-0.1-0.2-0.2l0,0c0-0.1,0.1-0.1,0.1-0.1l0,0h23.7c0.1,0,0.1,0,0.1,0.1l0,0
		C247.1,62.5,247,62.6,247,62.6z"/>
</g>
<g id="LINE-56">
	<path class="st0" d="M246.7,61.1h-23.1c-0.1,0-0.1-0.1-0.1-0.1l0,0c0-0.1,0.1-0.1,0.1-0.1h23.1c0.1,0,0.1,0.1,0.1,0.1
		C246.9,61.1,246.8,61.1,246.7,61.1L246.7,61.1z"/>
</g>
<g id="LINE-57">
	<path class="st0" d="M247,62.6c-0.1,0-0.1-0.1-0.1-0.1l-0.3-1.5c0-0.1,0.1-0.1,0.2-0.1l0.1,0.1l0.3,1.5
		C247.1,62.6,247.1,62.7,247,62.6L247,62.6z"/>
</g>
<g id="LINE-58">
	<path class="st0" d="M247.2,33.9c-0.1,0-0.1-0.1-0.1-0.1V19.3c0-0.1,0.1-0.1,0.1-0.1c0.1,0,0.1,0.1,0.2,0.1v14.5
		C247.3,33.8,247.3,33.9,247.2,33.9z"/>
</g>
<g id="LINE-59">
	<path class="st0" d="M247.2,33.9c-0.1,0-0.1-0.1-0.1-0.1V19.3c0-0.1,0.1-0.1,0.1-0.1c0.1,0,0.1,0,0.1,0.1l0,0v14.5
		C247.4,33.8,247.3,33.9,247.2,33.9L247.2,33.9z"/>
</g>
<g id="LINE-60">
	<path class="st0" d="M241.3,29.1c-0.1,0-0.1,0-0.1-0.1l0,0c0-0.1,0-0.1,0.1-0.2l0,0c0.1,0,0.1,0,0.2,0.1l0,0
		C241.4,29,241.4,29.1,241.3,29.1L241.3,29.1L241.3,29.1z"/>
</g>
<g id="LINE-61">
	<path class="st0" d="M241.3,29.1c-0.1,0-0.1,0-0.1-0.1l0,0c-0.1,0-0.1-0.1-0.1-0.2s0.1-0.1,0.2-0.1l0,0c0.1,0,0.1,0,0.2,0.1l0,0
		c0,0.1,0,0.1-0.1,0.2l0,0L241.3,29.1z"/>
</g>
<g id="LINE-62">
	<path class="st0" d="M241.3,29.1c-0.1,0-0.1,0-0.1-0.1l0,0c0-0.1,0-0.2,0.1-0.2s0.2,0,0.2,0.1C241.4,29,241.4,29.1,241.3,29.1
		L241.3,29.1L241.3,29.1z"/>
</g>
<g id="LINE-63">
	<path class="st0" d="M241.3,29.1c-0.1,0-0.1,0-0.1-0.1l0,0c0-0.1,0-0.2,0.1-0.2s0.2,0,0.2,0.1C241.4,29,241.4,29,241.3,29.1
		L241.3,29.1z"/>
</g>
<g id="LINE-64">
	<path class="st0" d="M241.7,30.1h-0.1l0,0c-0.1-0.1-0.1-0.1,0-0.2l0,0c0.1,0,0.1,0,0.2,0C241.8,29.9,241.8,30,241.7,30.1
		L241.7,30.1z"/>
</g>
<g id="LINE-65">
	<path class="st0" d="M241.7,30.1c-0.1,0-0.1,0-0.1-0.1l0,0c0-0.1,0-0.1,0-0.2c0,0,0.1-0.1,0.2,0l0,0
		C241.8,29.9,241.8,30,241.7,30.1C241.8,30,241.8,30,241.7,30.1L241.7,30.1z"/>
</g>
<g id="LINE-66">
	<path class="st0" d="M247.2,33.2c-0.1,0-0.1,0-0.1-0.1l0,0c0-0.1,0-0.1,0-0.2c0.1-0.1,0.1-0.1,0.2,0l0,0l0,0
		C247.3,33,247.3,33.1,247.2,33.2L247.2,33.2z"/>
</g>
<g id="LINE-67">
	<path class="st0" d="M261.7,33.1c-0.1,0-0.1-0.1-0.1-0.1V20.1c0-0.1,0.1-0.1,0.1-0.1c0.1,0,0.1,0,0.1,0.1l0,0V33
		C261.8,33,261.8,33.1,261.7,33.1L261.7,33.1z"/>
</g>
<g id="LINE-68">
	<path class="st0" d="M262.1,32.7c-0.1,0-0.2-0.1-0.2-0.2l0,0v-12c0-0.1,0-0.1,0.1-0.2l0,0c0.1,0,0.1,0.1,0.1,0.1l0,0v12
		C262.2,32.6,262.1,32.7,262.1,32.7z"/>
</g>
<g id="LINE-69">
	<path class="st0" d="M262.3,31.1c-0.1,0-0.1-0.1-0.1-0.1v-8.8c0-0.1,0.1-0.1,0.1-0.1c0.1,0,0.1,0.1,0.1,0.1V31
		C262.5,31,262.4,31.1,262.3,31.1z"/>
</g>
<g id="LINE-70">
	<path class="st0" d="M247.2,20.1c-0.1,0-0.1,0-0.1-0.1l0,0c0-0.1,0-0.1,0-0.2c0.1-0.1,0.1-0.1,0.2,0l0,0l0,0
		C247.3,19.8,247.3,19.9,247.2,20.1L247.2,20.1z"/>
</g>
<g id="LINE-71">
	<path class="st0" d="M244.3,65.2h-0.1c-0.1-0.1-0.1-0.1,0-0.2l0,0l2.5-2.2c0.1-0.1,0.1-0.1,0.2,0c0.1,0.1,0.1,0.1,0,0.2l0,0
		L244.3,65.2L244.3,65.2z"/>
</g>
<g id="LINE-72">
	<path class="st0" d="M244.4,34c-0.1,0-0.1-0.1-0.1-0.1c0-0.1,0-0.1,0.1-0.2l2.8-0.2c0.1,0,0.1,0.1,0.1,0.1c0,0.1,0,0.1-0.1,0.1l0,0
		L244.4,34L244.4,34z"/>
</g>
<g id="LINE-73">
	<path class="st0" d="M247.2,33.9c-0.1,0-0.1-0.1-0.1-0.1c0-0.1,0.1-0.1,0.1-0.2l14.5-0.8c0.1,0,0.1,0.1,0.1,0.2l-0.1,0.1
		L247.2,33.9z"/>
</g>
<g id="LINE-74">
	<path class="st0" d="M244.4,34h-18.5c-0.1,0-0.1-0.1-0.2-0.1c0-0.1,0.1-0.1,0.2-0.2h18.5c0.1,0,0.1,0.1,0.1,0.2
		C244.5,34,244.5,34,244.4,34z"/>
</g>
<g id="LINE-75">
	<path class="st0" d="M247.2,24.2L247.2,24.2c-0.1,0-0.1-0.1-0.1-0.2s0.1-0.1,0.1-0.1c0.1,0,0.1,0.1,0.2,0.1
		C247.4,24.1,247.3,24.2,247.2,24.2L247.2,24.2z"/>
</g>
<g id="LINE-76">
	<path class="st0" d="M246.9,8.2h-0.1L244.3,6c-0.1-0.1-0.1-0.1,0-0.2l0,0c0.1-0.1,0.1-0.1,0.2,0L247,8c0.1,0.1,0.1,0.2,0,0.2H246.9
		L246.9,8.2z"/>
</g>
<g id="LINE-77">
	<path class="st0" d="M247.2,22.7c-0.1,0-0.1-0.1-0.2-0.1c0-0.1,0-0.1,0.1-0.1l0,0l0,0c0.1,0,0.1,0,0.2,0.1l0,0
		C247.3,22.6,247.3,22.7,247.2,22.7z"/>
</g>
<g id="LINE-78">
	<path class="st0" d="M261.7,20.2L261.7,20.2l-14.5-0.8c-0.1,0-0.1-0.1-0.1-0.2s0-0.1,0.2-0.1l14.5,0.8c0.1,0,0.1,0.1,0.1,0.1l0,0
		C261.8,20.2,261.7,20.2,261.7,20.2L261.7,20.2z"/>
</g>
<g id="LINE-79">
	<path class="st0" d="M247.2,19.4L247.2,19.4l-1.9-0.1c-0.1,0-0.1-0.1-0.1-0.2s0.1-0.1,0.1-0.1l0,0l1.9,0.1c0.1,0,0.1,0,0.1,0.1l0,0
		C247.3,19.4,247.3,19.4,247.2,19.4L247.2,19.4z"/>
</g>
<g id="LINE-80">
	<path class="st0" d="M245.3,19.3H225c-0.1,0-0.1,0-0.2-0.1l0,0c0-0.1,0.1-0.1,0.1-0.1l0,0h20.4c0.1,0,0.1,0,0.1,0.1l0,0
		C245.5,19.3,245.4,19.3,245.3,19.3L245.3,19.3z"/>
</g>
<g id="LINE-81">
	<path class="st0" d="M247,8.6h-23.7c-0.1,0-0.1,0-0.1-0.1l0,0c0-0.1,0.1-0.2,0.2-0.2l0,0h23.7c0.1,0,0.2,0.1,0.2,0.2l0,0
		C247.1,8.5,247,8.5,247,8.6z"/>
</g>
<g id="LINE-82">
	<path class="st0" d="M246.9,8.2h-23.4c-0.1,0-0.1-0.1-0.1-0.1c0-0.1,0-0.1,0.1-0.1l0,0h23.4c0.1,0,0.1,0.1,0.1,0.1l0,0
		C247,8.1,246.9,8.2,246.9,8.2z"/>
</g>
<g id="LINE-83">
	<path class="st0" d="M244.3,6h-18.4c-0.1,0-0.1-0.1-0.1-0.2s0.1-0.1,0.1-0.1h18.4c0.1,0,0.1,0,0.1,0.1l0,0C244.4,6,244.4,6,244.3,6
		L244.3,6z"/>
</g>
<g id="LINE-84">
	<path class="st0" d="M244.3,6h-18.2C226,6,226,5.9,226,5.9c0-0.1,0.1-0.1,0.1-0.2h18.2c0.1,0,0.1,0.1,0.1,0.2
		C244.4,5.9,244.4,6,244.3,6z"/>
</g>
<g id="ARC-20">
	<path class="st0" d="M223.4,63L223.4,63c-0.2-0.1-0.3-0.3-0.3-0.5c0-0.1,0.1-0.1,0.2-0.1l0,0c0.1,0,0.1,0.1,0.1,0.2
		c0,0.1,0,0.2,0.1,0.2C223.5,62.8,223.5,63,223.4,63C223.5,63,223.5,63,223.4,63z"/>
</g>
<g id="ARC-21">
	<path class="st0" d="M226.1,65.2c-0.1,0-0.2,0-0.2-0.1c-0.1,0-0.1-0.1-0.1-0.2s0.1-0.1,0.2-0.1c0,0,0.1,0,0.1,0.1l0,0
		c0.1,0,0.1,0.1,0.1,0.1C226.2,65.1,226.1,65.2,226.1,65.2L226.1,65.2z"/>
</g>
<g id="ARC-22">
	<path class="st0" d="M223.6,61.1L223.6,61.1c-0.1,0-0.1-0.1-0.1-0.1l0,0c3.2-17.4,3.1-35.2-0.3-52.5c0-0.1,0-0.2,0.1-0.2
		s0.1,0,0.2,0.1l0,0c3.4,17.4,3.5,35.2,0.3,52.6C223.7,61.1,223.6,61.1,223.6,61.1z"/>
</g>
<g id="ARC-23">
	<path class="st0" d="M223.2,8.6c-0.1,0-0.1,0-0.2-0.1c0-0.2,0-0.4,0.2-0.5c0.1-0.1,0.1-0.1,0.2,0l0,0c0.1,0.1,0.1,0.2,0,0.2
		c-0.1,0.1-0.1,0.2-0.1,0.2C223.4,8.5,223.3,8.5,223.2,8.6L223.2,8.6z"/>
</g>
<g id="ARC-24">
	<path class="st0" d="M225.9,6h-0.1c-0.1-0.1-0.1-0.1,0-0.2l0,0c0.1-0.1,0.1-0.1,0.2-0.1c0.1,0,0.1,0.1,0.2,0.2
		C226.2,6,226.1,6,225.9,6L225.9,6C226,6,226,6,225.9,6z"/>
</g>
<g id="ARC-25">
	<path class="st0" d="M246.9,63h-0.1c-0.1-0.1-0.1-0.1,0-0.2l0,0c0.1-0.1,0.1-0.1,0.1-0.2c0-0.1,0.1-0.1,0.2-0.1l0.1,0.1
		C247.2,62.8,247.1,63,246.9,63L246.9,63z"/>
</g>
<g id="ARC-26">
	<path class="st0" d="M244.3,65.2c-0.1,0-0.1-0.1-0.1-0.1c0-0.1,0.1-0.1,0.1-0.1l0,0c0-0.1,0.1-0.1,0.2-0.1c0.1,0,0.1,0.1,0.1,0.2
		c0,0,0,0-0.1,0.1C244.4,65.2,244.4,65.2,244.3,65.2z"/>
</g>
<g id="ARC-27">
	<path class="st0" d="M242.3,23.2L242.3,23.2c0,0-0.1-0.1,0-0.2l0,0l0,0c0.1-0.1,0.1-0.1,0.2,0l0,0c0,0.1,0,0.1,0,0.2l0,0
		C242.5,23.3,242.4,23.3,242.3,23.2z"/>
</g>
<g id="ARC-28">
	<path class="st0" d="M242.3,23.3L242.3,23.3c-0.1-0.1-0.1-0.1,0-0.2l0,0l0,0c0.1,0,0.1,0,0.2,0c0.1,0.1,0.1,0.1,0,0.2l0,0l0,0
		C242.4,23.3,242.3,23.3,242.3,23.3L242.3,23.3z"/>
</g>
<g id="ARC-29">
	<path class="st0" d="M241.7,24.2L241.7,24.2c0-0.1,0-0.1,0-0.2l0,0c0.1,0,0.1,0,0.2,0c0.1,0.1,0.1,0.1,0,0.2l0,0l0,0
		C241.9,24.2,241.8,24.2,241.7,24.2z"/>
</g>
<g id="ARC-30">
	<path class="st0" d="M241.6,30L241.6,30c-0.1-0.1-0.1-0.1,0-0.2l0,0c0.1,0,0.2,0,0.2,0.1l0,0L241.6,30z"/>
</g>
<g id="ARC-31">
	<path class="st0" d="M241.3,29.1c-0.1,0-0.1,0-0.1-0.1l0,0c0-0.1,0-0.2,0.1-0.2s0.2,0,0.2,0.1l0,0c0,0.1,0,0.1,0,0.2H241.3z"/>
</g>
<g id="ARC-32">
	<path class="st0" d="M262.1,20.6c-0.1,0-0.1,0-0.1-0.1l0,0c0-0.1-0.1-0.3-0.2-0.3s-0.1-0.1-0.1-0.1c0-0.1,0-0.1,0.2-0.1
		c0.3,0,0.5,0.3,0.5,0.5l0,0C262.2,20.5,262.1,20.6,262.1,20.6z"/>
</g>
<g id="ARC-33">
	<path class="st0" d="M261.7,33.1c-0.1,0-0.1-0.1-0.1-0.1c0-0.1,0.1-0.1,0.1-0.2c0.1,0,0.2-0.1,0.2-0.3c0-0.1,0.1-0.1,0.1-0.1l0,0
		c0.1,0,0.1,0.1,0.1,0.1C262.2,32.9,262,33.1,261.7,33.1L261.7,33.1z"/>
</g>
<g id="ARC-34">
	<path class="st0" d="M247.2,30.7c-0.1,0-0.1-0.1-0.1-0.1c0-0.1,0-0.1,0.1-0.1l0,0l0,0c0.1,0,0.2,0,0.2,0.1
		C247.4,30.6,247.4,30.7,247.2,30.7L247.2,30.7L247.2,30.7z"/>
</g>
<g id="ARC-35">
	<path class="st0" d="M247,8.6L247,8.6c-0.1,0-0.1-0.1-0.1-0.1l0,0c0-0.1,0-0.2-0.1-0.2c-0.1-0.1-0.1-0.2,0-0.2s0.1-0.1,0.2,0
		c0.1,0.1,0.2,0.3,0.2,0.5C247.1,8.5,247.1,8.6,247,8.6z"/>
</g>
<g id="ARC-36">
	<path class="st0" d="M244.3,6L244.3,6L244.3,6c-0.2,0-0.2,0-0.2-0.1l0,0c0-0.1,0.1-0.2,0.2-0.2l0,0c0.1,0,0.2,0,0.2,0.1
		c0.1,0.1,0.1,0.1,0,0.2l0,0C244.4,6,244.3,6,244.3,6z"/>
</g>
<g id="ARC-37">
	<path class="st0" d="M245.3,19.3L245.3,19.3c-0.1,0-0.1-0.1-0.1-0.2c0.4-3.6,1-7.2,1.7-10.8c0-0.1,0.1-0.1,0.2-0.1l0,0
		c0.1,0,0.1,0.1,0.1,0.2c-0.7,3.5-1.2,7.2-1.7,10.7C245.5,19.3,245.4,19.3,245.3,19.3z"/>
</g>
<g id="ARC-38">
	<path class="st0" d="M246.7,61.1c-0.1,0-0.1,0-0.2-0.1c-1.6-8.9-2.4-18-2.3-27.1c0-0.1,0.1-0.1,0.1-0.2l0,0c0.1,0,0.1,0.1,0.2,0.2
		c-0.1,9.1,0.7,18.1,2.3,27.1C246.9,61.1,246.8,61.2,246.7,61.1C246.7,61.2,246.7,61.2,246.7,61.1L246.7,61.1z"/>
</g>
<g id="SPLINE-7">
	<path class="st0" d="M244.4,34h-0.1l-0.3-0.3l-0.6-0.8c-0.3-0.5-0.6-0.9-0.9-1.2c-0.3-0.4-0.3-0.5-0.5-0.8s-0.3-0.6-0.5-0.8
		c0-0.1,0-0.1,0-0.2c0.1-0.1,0.1-0.1,0.2,0l0,0c0.1,0.3,0.3,0.5,0.5,0.8s0.3,0.5,0.5,0.7s0.6,0.8,0.9,1.2c0.3,0.4,0.4,0.6,0.6,0.8
		l0.2,0.3C244.5,33.8,244.5,33.9,244.4,34C244.5,34,244.5,34,244.4,34L244.4,34z"/>
</g>
<g id="SPLINE-8">
	<path class="st0" d="M241.7,30c-0.1,0-0.1,0-0.1-0.1s-0.1-0.1-0.1-0.2c-0.1-0.2-0.2-0.5-0.3-0.7c0-0.1,0-0.2,0.1-0.2s0.2,0,0.2,0.1
		c0,0.2,0.2,0.5,0.3,0.7c0,0.1,0.1,0.2,0.1,0.2C241.8,29.9,241.8,30,241.7,30L241.7,30L241.7,30z"/>
</g>
<g id="SPLINE-9">
	<path class="st0" d="M241.3,29.1c-0.1,0-0.1,0-0.1-0.1c-0.1-0.4-0.2-0.8-0.3-1.2v-0.6c0-0.2,0-0.4,0-0.6s0.1-0.4,0.1-0.6
		s0.1-0.4,0.2-0.6c0.1-0.2,0.1-0.4,0.2-0.6c0.1-0.2,0.2-0.4,0.3-0.6c0.1,0,0.1,0,0.2,0c0.1,0.1,0.1,0.1,0,0.2l0,0l-0.3,0.5l-0.2,0.6
		c0,0.2-0.1,0.4-0.2,0.6c0,0.2-0.1,0.4-0.1,0.6s0,0.4,0,0.6s0,0.4,0,0.6C241.2,28.3,241.2,28.7,241.3,29.1
		C241.4,29,241.3,29.1,241.3,29.1L241.3,29.1z"/>
</g>
<g id="SPLINE-10">
	<path class="st0" d="M241.8,24.2L241.8,24.2c0-0.1,0-0.1,0-0.2l0.1-0.2c0.1-0.2,0.3-0.5,0.4-0.7c0.1-0.1,0.1-0.1,0.2,0l0,0
		c0,0.1,0,0.1,0,0.2c-0.1,0.2-0.3,0.4-0.4,0.7c0,0.1-0.1,0.1-0.1,0.2C241.9,24.2,241.8,24.2,241.8,24.2z"/>
</g>
<g id="SPLINE-11">
	<path class="st0" d="M242.4,23.2L242.4,23.2c-0.1-0.1-0.1-0.1-0.1-0.2l0,0c0.2-0.3,0.3-0.5,0.5-0.8l0.5-0.7c0.3-0.4,0.6-0.8,1-1.2
		c0.4-0.4,0.5-0.6,0.7-0.8l0.3-0.3c0.1-0.1,0.2-0.1,0.2,0s0.1,0.1,0,0.2l-0.3,0.3l-0.7,0.8c-0.4,0.4-0.7,0.8-1,1.2l-0.5,0.7
		C242.8,22.7,242.6,22.9,242.4,23.2C242.5,23.2,242.4,23.2,242.4,23.2z"/>
</g>
<g id="SPLINE-12">
	<path class="st0" d="M247.2,21.6c-0.1,0-0.1-0.1-0.1-0.1v-0.3c0-0.3,0-0.5,0-0.8s0-0.1,0.1-0.1s0.1,0,0.2,0.1s0,0.5,0,0.8v0.3
		C247.4,21.5,247.3,21.6,247.2,21.6L247.2,21.6z"/>
</g>
<path class="st1" d="M261.9,21.9v-1.1c0-0.1,0.1-0.1,0.1-0.1h1c0.1,0,0.1,0.1,0.1,0.1v1h3.5l0,0l0,0l0,0v-0.1c0,0,0,0,0-0.1l0.1-0.1
	l0.2-0.2l0.2-0.2l0.5-0.2l0.3-0.1h0.2h0.3h0.3h0.3h0.2l0.2,0.1l0.5,0.2l0.2,0.2l0.2,0.2l0.1,0.2c0,0,0.1,0,0.1,0.1l0,0v0.1l0,0l0,0
	v0.8l0,0v0.1v0.1l0,0l0.1,0.1h1.3l0,0l0.1-0.1v-0.1l0,0v-5.7l0,0l0,0l0,0l0,0l0,0l0,0l0,0l0,0h2.2h0.1h0.1h0.1l0,0l0,0l0,0l0,0
	l0.3,0.5l0.7,1l0.3,0.5l0.3,0.6l0.3,0.6l0.2,0.6l0.2,0.6l0.2,0.6l0.2,0.6l0.2,0.6l0.1,0.6l0.1,0.6l0.1,0.6v0.6v0.6v1.2v0.6v0.6v0.6
	l-0.1,0.6l-0.1,0.6l-0.2,0.6l-0.2,0.6l-0.2,0.6l-0.2,0.6l-0.2,0.6l-0.3,0.6l-0.3,0.6l-0.3,0.5l-0.3,0.5l-0.4,0.5l-0.3,0.5
	c0,0,0,0.1-0.1,0.1l0,0h-0.1h-0.1h-2.2l0,0l0,0l0,0l0,0l0,0v-0.1l0,0v-6l0,0v-0.1l-0.1-0.1h-0.1h-1.2h-0.1l0,0l0,0v0.1v0.1l0,0v0.9
	l0,0v0.2v0.1l0,0l0,0l0,0l-0.1,0.1l-0.2,0.2l-0.2,0.2l-0.5,0.2l-0.3,0.1h-0.2h-0.3h-0.3h-0.3H268l-0.3-0.1l-0.5-0.2l-0.2-0.1
	l-0.2-0.2l-0.1-0.2l0,0l0,0l0,0v-0.1v-0.1l0,0h-3.5v1c0,0.1-0.1,0.1-0.1,0.1h-1c-0.1,0-0.1-0.1-0.1-0.1v-1.1 M262.1,31.2v-9
	 M262.4,22.1v10.3h0.7V21h-0.7V22.1z M263.4,22.1v9.3h3.5v-9.3L263.4,22.1z M267.2,21.7v10l0.1,0.1l0.2,0.2l0.2,0.1l0.4,0.2h0.2h0.2
	h0.2h0.2h0.2h0.2l0.2-0.1l0.4-0.2l0.2-0.1l0.3-0.3v-10l-0.2-0.2l-0.2-0.2l-0.4-0.2l-0.4-0.2l-0.2-0.1h0h-0.6h-0.2l-0.2,0.1l-0.4,0.2
	l-0.2,0.1L267.2,21.7z M270.9,23.2v7h0.1h0.1l0,0v-6.9l0,0H271L270.9,23.2z M271.4,23.3v6.8h0.7v-6.7L271.4,23.3z M272.3,23.3v6.8
	h0.1h0.1l0,0v-6.9l0,0h-0.1L272.3,23.3z M273.1,17v19.5h1.8V17H273.1z M275.4,17.3v18.8l0.1-0.2l0.7-1l0.3-0.5l0.3-0.5l0.3-0.6
	l0.2-0.6l0.2-0.6l0.2-0.6l0.2-0.6l0.2-0.6l0.1-0.6l0.1-0.6l0.2-1.2v-0.6v-1.2v-0.6v-0.6l-0.1-0.6l-0.1-0.6l-0.1-0.6l-0.2-0.6
	l-0.2-0.6l-0.2-0.6l-0.2-0.6l-0.2-0.6l-0.3-0.5l-0.3-0.6l-0.3-0.5L275.4,17.3z"/>
<g id="LINE-85">
	<path class="st0" d="M105.1,8.2L105.1,8.2C104.9,8.1,104.9,8,105,8l2.5-2.2c0.1-0.1,0.1-0.1,0.2,0l0,0c0.1,0.1,0.1,0.1,0,0.2l0,0
		L105.1,8.2L105.1,8.2z"/>
</g>
<g id="LINE-86">
	<path class="st0" d="M107.6,65.2L107.6,65.2L105,63c-0.1-0.1-0.1-0.1,0-0.2l0,0c0.1-0.1,0.1-0.1,0.2,0l0,0l2.5,2.2
		C107.8,65.1,107.8,65.1,107.6,65.2L107.6,65.2C107.6,65.2,107.6,65.2,107.6,65.2z"/>
</g>
<g id="LINE-87">
	<path class="st0" d="M104.9,62.6L104.9,62.6C104.8,62.6,104.8,62.5,104.9,62.6L104.9,62.6l0.2-1.6c0-0.1,0.1-0.1,0.1-0.1l0,0
		c0.1,0,0.1,0.1,0.1,0.2l0,0L104.9,62.6C105.1,62.6,105,62.6,104.9,62.6z"/>
</g>
<g id="LINE-88">
	<path class="st0" d="M123.4,24.2L123.4,24.2c0-0.1,0-0.1,0-0.2l0,0c0-0.1,0.1-0.1,0.2-0.1s0.1,0.1,0.1,0.2l0,0
		C123.6,24.2,123.5,24.3,123.4,24.2L123.4,24.2z"/>
</g>
<g id="LINE-89">
	<path class="st0" d="M123.4,24.3L123.4,24.3c0-0.1,0-0.1,0-0.2l0,0c0.1-0.1,0.1-0.1,0.2,0l0,0c0,0.1,0,0.1,0,0.2
		C123.5,24.3,123.5,24.3,123.4,24.3z"/>
</g>
<g id="LINE-90">
	<path class="st0" d="M123.4,24.2L123.4,24.2c0-0.1,0-0.1,0-0.2l0,0c0.1-0.1,0.1-0.1,0.2,0l0,0c0,0.1,0,0.1,0,0.2
		C123.6,24.2,123.5,24.2,123.4,24.2z"/>
</g>
<g id="LINE-91">
	<path class="st0" d="M123.4,24.2L123.4,24.2c0-0.1,0-0.1,0-0.2l0,0c0.1,0,0.1,0,0.2,0c0.1,0.1,0.1,0.1,0,0.2l0,0
		C123.5,24.2,123.5,24.2,123.4,24.2z"/>
</g>
<g id="LINE-92">
	<path class="st0" d="M124,23.2L124,23.2c0-0.1,0-0.1,0-0.2l0,0c0.1-0.1,0.1-0.1,0.2,0s0.1,0.1,0,0.2l0,0
		C124.2,23.3,124.1,23.3,124,23.2L124,23.2z"/>
</g>
<g id="LINE-93">
	<path class="st0" d="M124,23.2L124,23.2c0-0.1,0-0.1,0-0.2l0,0c0.1,0,0.1,0,0.2,0c0,0.1,0,0.1,0,0.2
		C124.1,23.3,124.1,23.3,124,23.2z"/>
</g>
<g id="LINE-94">
	<path class="st0" d="M125.9,65.2h-18.2c-0.1,0-0.1-0.1-0.1-0.1c0-0.1,0.1-0.1,0.1-0.1h18.2C126,65,126,65.1,125.9,65.2
		C126,65.2,125.9,65.2,125.9,65.2z"/>
</g>
<g id="LINE-95">
	<path class="st0" d="M126,65.2h-18.4c-0.1,0-0.1-0.1-0.1-0.1c0-0.1,0-0.1,0.1-0.1l0,0H126c0.1,0,0.2,0.1,0.2,0.2
		C126.1,65.1,126.1,65.2,126,65.2z"/>
</g>
<g id="LINE-96">
	<path class="st0" d="M128.5,63H105c-0.1,0-0.1-0.1-0.1-0.1l0,0c0-0.1,0.1-0.1,0.1-0.1h23.5c0.1,0,0.1,0,0.1,0.1l0,0
		C128.7,62.9,128.6,63,128.5,63L128.5,63z"/>
</g>
<g id="LINE-97">
	<path class="st0" d="M128.6,62.6h-23.7c-0.1,0-0.1-0.1-0.1-0.2c0-0.1,0.1-0.1,0.1-0.1h23.7c0.1,0,0.1,0.1,0.2,0.1
		C128.8,62.6,128.7,62.6,128.6,62.6z"/>
</g>
<g id="LINE-98">
	<path class="st0" d="M128.3,61.1h-23.1c-0.1,0-0.2-0.1-0.2-0.2c0-0.1,0.1-0.1,0.2-0.1h23.1c0.1,0,0.1,0,0.1,0.1l0,0
		C128.5,61.1,128.4,61.1,128.3,61.1C128.4,61.1,128.3,61.1,128.3,61.1z"/>
</g>
<g id="LINE-99">
	<path class="st0" d="M128.6,62.6c-0.1,0-0.1-0.1-0.1-0.1l-0.3-1.5c0-0.1,0.1-0.1,0.2-0.1l0.1,0.1l0.3,1.5
		C128.8,62.6,128.7,62.7,128.6,62.6C128.7,62.7,128.7,62.7,128.6,62.6L128.6,62.6z"/>
</g>
<g id="LINE-100">
	<path class="st0" d="M128.8,33.9c-0.1,0-0.1-0.1-0.2-0.1V19.3c0-0.1,0.1-0.1,0.2-0.1c0.1,0,0.1,0.1,0.1,0.1v14.5
		C129,33.8,128.9,33.9,128.8,33.9z"/>
</g>
<g id="LINE-101">
	<path class="st0" d="M128.8,33.9c-0.1,0-0.1-0.1-0.1-0.1V19.3c0-0.1,0.1-0.1,0.1-0.1c0.1,0,0.1,0.1,0.2,0.1v14.5
		C129,33.8,128.9,33.9,128.8,33.9z"/>
</g>
<g id="LINE-102">
	<path class="st0" d="M122.9,29.1c-0.1,0-0.1,0-0.1-0.1l0,0c0-0.1,0-0.2,0.1-0.2s0.1,0,0.2,0.1l0,0C123.1,29,123.1,29.1,122.9,29.1
		C123,29.1,123,29.1,122.9,29.1L122.9,29.1z"/>
</g>
<g id="LINE-103">
	<path class="st0" d="M122.9,29.1c-0.1,0-0.1,0-0.1-0.1l0,0c0-0.1,0-0.2,0.1-0.2s0.2,0,0.2,0.1s0,0.1,0,0.2H122.9z"/>
</g>
<g id="LINE-104">
	<path class="st0" d="M122.9,29.1c-0.1,0-0.1,0-0.1-0.1l0,0c0-0.1,0-0.2,0.1-0.2s0.2,0,0.2,0.1S123,29.1,122.9,29.1L122.9,29.1z"/>
</g>
<g id="LINE-105">
	<path class="st0" d="M122.9,29.1c-0.1,0-0.1,0-0.1-0.1l0,0c0-0.1,0-0.1,0.1-0.2l0,0c0.1,0,0.2,0,0.2,0.1S123,29.1,122.9,29.1
		L122.9,29.1L122.9,29.1z"/>
</g>
<g id="LINE-106">
	<path class="st0" d="M123.3,30.1L123.3,30.1L123.3,30.1c-0.2-0.1-0.1-0.1-0.1-0.2c0.1-0.1,0.1,0,0.2,0S123.5,30,123.3,30.1
		L123.3,30.1z"/>
</g>
<g id="LINE-107">
	<path class="st0" d="M123.3,30.1c0,0-0.1,0-0.1-0.1l0,0c0-0.1,0-0.1,0-0.2c0.1-0.1,0.1-0.1,0.2,0l0,0
		C123.5,29.9,123.5,30,123.3,30.1L123.3,30.1z"/>
</g>
<g id="LINE-108">
	<path class="st0" d="M128.8,33.2c-0.1,0-0.1,0-0.1-0.1l0,0c0-0.1,0-0.1,0-0.2c0.1,0,0.1,0,0.2,0l0,0C129,33,129,33.1,128.8,33.2
		L128.8,33.2z"/>
</g>
<g id="LINE-109">
	<path class="st0" d="M143.3,33.1c-0.1,0-0.1-0.1-0.1-0.1V20.1c0-0.1,0.1-0.1,0.1-0.1c0.1,0,0.1,0.1,0.2,0.1V33
		C143.5,33,143.4,33.1,143.3,33.1z"/>
</g>
<g id="LINE-110">
	<path class="st0" d="M143.7,32.7c-0.1,0-0.1-0.1-0.1-0.2v-12c0-0.1,0-0.1,0.1-0.1l0,0c0.1,0,0.1,0,0.2,0.1l0,0v12
		C143.8,32.6,143.8,32.7,143.7,32.7z"/>
</g>
<g id="LINE-111">
	<path class="st0" d="M143.9,31.1c-0.1,0-0.1-0.1-0.2-0.1v-8.8c0-0.1,0.1-0.1,0.2-0.1c0.1,0,0.1,0.1,0.1,0.1V31
		C144,31,144,31.1,143.9,31.1z"/>
</g>
<g id="LINE-112">
	<path class="st0" d="M128.8,20.1c-0.1,0-0.1,0-0.1-0.1l0,0c-0.1-0.1-0.1-0.1,0-0.2l0,0c0.1,0,0.1,0,0.2,0l0,0
		C129,19.8,129,19.9,128.8,20.1L128.8,20.1z"/>
</g>
<g id="LINE-113">
	<path class="st0" d="M126,65.2L126,65.2c-0.2-0.1-0.2-0.1-0.1-0.2l0,0l2.5-2.2c0.1-0.1,0.1-0.1,0.2,0c0.1,0.1,0.1,0.1,0,0.2l0,0
		L126,65.2L126,65.2z"/>
</g>
<g id="LINE-114">
	<path class="st0" d="M126.1,34c-0.1,0-0.1-0.1-0.1-0.2l0.1-0.1l2.8-0.2c0.1,0,0.2,0,0.2,0.1s0,0.2-0.1,0.2h-0.1L126.1,34z"/>
</g>
<g id="LINE-115">
	<path class="st0" d="M128.8,33.9c-0.1,0-0.1-0.1-0.1-0.1c0-0.1,0-0.1,0.1-0.2l14.5-0.8c0.1,0,0.1,0.1,0.2,0.1c0,0.1,0,0.1-0.1,0.1
		l0,0L128.8,33.9L128.8,33.9z"/>
</g>
<g id="LINE-116">
	<path class="st0" d="M126.1,34h-18.6c-0.1,0-0.1,0-0.1-0.1l0,0c0-0.1,0.1-0.2,0.2-0.2h18.6c0.1,0,0.1,0.1,0.1,0.2
		C126.2,34,126.1,34,126.1,34z"/>
</g>
<g id="LINE-117">
	<path class="st0" d="M128.8,24.2L128.8,24.2c-0.1,0-0.1-0.1-0.2-0.2c0-0.1,0.1-0.2,0.2-0.1s0.2,0.1,0.1,0.2
		C129,24.1,128.9,24.2,128.8,24.2L128.8,24.2z"/>
</g>
<g id="LINE-118">
	<path class="st0" d="M128.5,8.2L128.5,8.2L125.9,6c-0.1,0-0.1-0.1,0-0.2c0-0.1,0.1-0.1,0.2,0l0,0l2.5,2.2
		C128.6,8,128.6,8.1,128.5,8.2C128.6,8.2,128.5,8.2,128.5,8.2z"/>
</g>
<g id="LINE-119">
	<path class="st0" d="M128.8,22.7c-0.1,0-0.1-0.1-0.2-0.1c0-0.1,0-0.1,0.1-0.1l0,0l0,0c0.1,0,0.2,0.1,0.2,0.2
		C129,22.6,128.9,22.7,128.8,22.7z"/>
</g>
<g id="LINE-120">
	<path class="st0" d="M143.3,20.2L143.3,20.2l-14.5-0.8c-0.1,0-0.2-0.1-0.1-0.2c0-0.1,0-0.1,0.2-0.1l14.5,0.8c0.1,0,0.1,0.1,0.1,0.1
		l0,0C143.4,20.2,143.4,20.2,143.3,20.2z"/>
</g>
<g id="LINE-121">
	<path class="st0" d="M128.8,19.4L128.8,19.4l-1.8-0.1c-0.1,0-0.1-0.1-0.1-0.1l0,0c0-0.1,0.1-0.1,0.1-0.1l0,0l1.8,0.1
		c0.1,0,0.1,0.1,0.1,0.1l0,0C129,19.4,129,19.4,128.8,19.4C128.9,19.4,128.9,19.4,128.8,19.4z"/>
</g>
<g id="LINE-122">
	<path class="st0" d="M127,19.3h-20.4c-0.1,0-0.1-0.1-0.1-0.1l0,0c0-0.1,0.1-0.1,0.1-0.1H127c0.1,0,0.1,0.1,0.2,0.1
		C127.2,19.3,127.1,19.3,127,19.3z"/>
</g>
<g id="LINE-123">
	<path class="st0" d="M128.6,8.6h-23.7c-0.1,0-0.1-0.1-0.1-0.1c0-0.1,0.1-0.1,0.1-0.2h23.7c0.1,0,0.1,0.1,0.2,0.2
		C128.8,8.5,128.7,8.6,128.6,8.6z"/>
</g>
<g id="LINE-124">
	<path class="st0" d="M128.5,8.2H105c-0.1,0-0.1-0.1-0.1-0.1c0-0.1,0-0.1,0.1-0.1l0,0h23.5c0.1,0,0.1,0,0.2,0.1l0,0
		C128.7,8.1,128.6,8.2,128.5,8.2L128.5,8.2z"/>
</g>
<g id="LINE-125">
	<path class="st0" d="M126,6h-18.4c-0.1,0-0.1-0.1-0.1-0.2s0.1-0.1,0.1-0.1H126c0.1,0,0.1,0.1,0.2,0.1C126.1,6,126.1,6,126,6z"/>
</g>
<g id="LINE-126">
	<path class="st0" d="M125.9,6h-18.2c-0.1,0-0.1-0.1-0.1-0.1c0-0.1,0.1-0.1,0.1-0.2h18.2c0.1,0,0.2,0.1,0.2,0.2
		C126,5.9,125.9,6,125.9,6L125.9,6z"/>
</g>
<g id="ARC-39">
	<path class="st0" d="M105.1,63C105,63,105,63,105.1,63c-0.2-0.1-0.3-0.3-0.3-0.5c0-0.1,0.1-0.1,0.2-0.1l0,0c0.1,0,0.1,0.1,0.1,0.2
		c0,0.1,0,0.2,0,0.2C105.1,62.8,105.2,63,105.1,63L105.1,63z"/>
</g>
<g id="ARC-40">
	<path class="st0" d="M107.7,65.2c-0.1,0-0.2,0-0.2-0.1c-0.1-0.1-0.1-0.1,0-0.2s0.1-0.1,0.2,0l0,0l0,0c0.1,0,0.1,0.1,0.1,0.1
		C107.8,65.1,107.7,65.2,107.7,65.2L107.7,65.2z"/>
</g>
<g id="ARC-41">
	<path class="st0" d="M105.2,61.1L105.2,61.1c-0.1,0-0.1-0.1-0.1-0.2l0,0c3.2-17.4,3.1-35.2-0.3-52.5c0-0.1,0-0.1,0.1-0.2l0,0
		c0.1,0,0.2,0,0.2,0.1c3.4,17.4,3.5,35.2,0.3,52.6C105.4,61.1,105.3,61.1,105.2,61.1L105.2,61.1z"/>
</g>
<g id="ARC-42">
	<path class="st0" d="M104.9,8.6c-0.1,0-0.1,0-0.1-0.1c0-0.2,0-0.4,0.2-0.5c0.1-0.1,0.1-0.1,0.2,0l0,0c0.1,0.1,0.1,0.2,0,0.2
		c0,0.1,0,0.2,0,0.2c0,0.1,0,0.2-0.1,0.2L104.9,8.6z"/>
</g>
<g id="ARC-43">
	<path class="st0" d="M107.6,6L107.6,6c-0.2-0.1-0.2-0.1-0.1-0.2l0,0c0.1-0.1,0.1-0.1,0.2-0.1s0.1,0.1,0.1,0.2S107.7,6,107.6,6
		L107.6,6C107.6,6.1,107.6,6.1,107.6,6z"/>
</g>
<g id="ARC-44">
	<path class="st0" d="M128.5,63h-0.1c-0.1-0.1-0.1-0.1,0-0.2l0,0c0.1-0.1,0.1-0.1,0.1-0.2c0-0.1,0.1-0.1,0.1-0.1l0.1,0.1l0,0
		C128.8,62.8,128.8,63,128.5,63C128.6,63.1,128.5,63,128.5,63z"/>
</g>
<g id="ARC-45">
	<path class="st0" d="M125.9,65.2C125.8,65.2,125.8,65.1,125.9,65.2c-0.1-0.2,0-0.2,0-0.2l0,0l0,0c0.1-0.1,0.1-0.1,0.2,0l0,0
		c0.1,0.1,0.1,0.2,0,0.2S125.9,65.2,125.9,65.2z"/>
</g>
<g id="ARC-46">
	<path class="st0" d="M124,23.2L124,23.2c0-0.1,0-0.1,0-0.2l0,0c0.1-0.1,0.1-0.1,0.2,0l0,0c0,0.1,0,0.1,0,0.2l0,0
		C124.1,23.3,124.1,23.3,124,23.2z"/>
</g>
<g id="ARC-47">
	<path class="st0" d="M124,23.3L124,23.3c-0.1-0.1-0.1-0.1,0-0.2l0,0l0,0c0.1,0,0.1,0,0.2,0c0,0.1,0,0.1,0,0.2l0,0
		C124.2,23.3,124.1,23.3,124,23.3L124,23.3z"/>
</g>
<g id="ARC-48">
	<path class="st0" d="M123.4,24.2L123.4,24.2c-0.1-0.1-0.1-0.1,0-0.2l0,0l0,0c0.1,0,0.1,0,0.2,0c0,0.1,0,0.1,0,0.2l0,0
		C123.5,24.2,123.4,24.2,123.4,24.2z"/>
</g>
<g id="ARC-49">
	<path class="st0" d="M123.2,30L123.2,30c0-0.1,0-0.2,0-0.2c0.1,0,0.2,0,0.2,0l0,0l0,0L123.2,30z"/>
</g>
<g id="ARC-50">
	<path class="st0" d="M122.9,29.1c-0.1,0-0.1,0-0.1-0.1l0,0c0-0.1,0-0.2,0.1-0.2s0.2,0,0.2,0.1l0,0l0,0c0,0.1,0,0.1,0,0.2H122.9z"/>
</g>
<g id="ARC-51">
	<path class="st0" d="M143.7,20.6c-0.1,0-0.1-0.1-0.1-0.1c0-0.1-0.1-0.3-0.2-0.3c-0.1,0-0.2,0-0.1-0.1c0-0.1,0-0.1,0.2-0.1
		c0.3,0,0.5,0.3,0.5,0.5l0,0C143.8,20.5,143.8,20.6,143.7,20.6L143.7,20.6z"/>
</g>
<g id="ARC-52">
	<path class="st0" d="M143.3,33.1c-0.1,0-0.1-0.1-0.1-0.1s0-0.1,0.1-0.2c0.1,0,0.2-0.1,0.2-0.3c0-0.1,0.1-0.1,0.1-0.1
		c0.1,0,0.1,0,0.1,0.1l0,0C143.8,32.9,143.6,33.1,143.3,33.1L143.3,33.1z"/>
</g>
<g id="ARC-53">
	<path class="st0" d="M128.8,30.7c-0.1,0-0.1-0.1-0.2-0.1c0-0.1,0.1-0.1,0.1-0.2l0,0c0.1,0,0.1,0,0.2,0.1l0,0
		C129,30.6,129,30.7,128.8,30.7C128.9,30.7,128.9,30.7,128.8,30.7L128.8,30.7z"/>
</g>
<g id="ARC-54">
	<path class="st0" d="M128.6,8.6L128.6,8.6c-0.1,0-0.1-0.1-0.1-0.2l0,0c0-0.1,0-0.2-0.1-0.2c-0.1-0.1-0.1-0.2,0-0.2s0.1-0.1,0.2,0
		c0.1,0.1,0.2,0.3,0.2,0.5C128.8,8.5,128.7,8.6,128.6,8.6z"/>
</g>
<g id="ARC-55">
	<path class="st0" d="M126,6C126,6,125.9,6,126,6L126,6c-0.2,0-0.2-0.1-0.2-0.1c0-0.1,0.1-0.1,0.1-0.2c0.1,0,0.2,0,0.2,0.1
		C126.2,5.9,126.2,5.9,126,6L126,6C126.1,6.1,126,6.1,126,6z"/>
</g>
<g id="ARC-56">
	<path class="st0" d="M127,19.3L127,19.3c-0.1,0-0.1-0.1-0.1-0.2c0.4-3.6,1-7.2,1.7-10.8c0-0.1,0.1-0.1,0.1-0.1
		c0.1,0,0.1,0.1,0.1,0.1l0,0c-0.7,3.5-1.2,7.2-1.7,10.7C127.2,19.2,127.2,19.3,127,19.3C127.1,19.3,127,19.3,127,19.3z"/>
</g>
<g id="ARC-57">
	<path class="st0" d="M128.3,61.1c-0.1,0-0.1-0.1-0.1-0.1c-1.6-8.9-2.4-18-2.3-27.1c0-0.1,0.1-0.1,0.2-0.2l0,0
		c0.1,0,0.1,0.1,0.1,0.2c-0.1,9.1,0.7,18.1,2.3,27.1C128.5,61.1,128.4,61.2,128.3,61.1L128.3,61.1z"/>
</g>
<g id="SPLINE-13">
	<path class="st0" d="M126.1,34L126.1,34l-0.3-0.3l-0.6-0.8c-0.3-0.5-0.6-0.9-0.9-1.2c-0.3-0.4-0.3-0.5-0.5-0.8s-0.3-0.6-0.5-0.8
		c0,0-0.1-0.1,0-0.2l0,0c0.1-0.1,0.1-0.1,0.2,0l0,0c0.1,0.3,0.3,0.6,0.5,0.8c0.2,0.3,0.3,0.5,0.5,0.7s0.6,0.8,0.9,1.2
		s0.4,0.6,0.6,0.8l0.2,0.3C126.2,33.8,126.2,33.9,126.1,34L126.1,34L126.1,34z"/>
</g>
<g id="SPLINE-14">
	<path class="st0" d="M123.3,30c-0.1,0-0.1,0-0.1-0.1s-0.1-0.2-0.1-0.2c-0.1-0.2-0.2-0.5-0.3-0.7c0-0.1,0-0.2,0.1-0.2s0.2,0,0.2,0.1
		c0.1,0.2,0.2,0.5,0.3,0.7l0.1,0.2c0,0,0.1,0.1,0,0.2l0,0H123.3z"/>
</g>
<g id="SPLINE-15">
	<path class="st0" d="M122.9,29.1c-0.1,0-0.1,0-0.1-0.1c-0.1-0.4-0.2-0.8-0.3-1.2c-0.1-0.4-0.1-0.9,0-1.3c0-0.2,0.1-0.4,0.1-0.6
		s0.1-0.4,0.2-0.6c0-0.2,0.2-0.4,0.2-0.6c0.1-0.2,0.2-0.4,0.3-0.6c0.1,0,0.1,0,0.2,0c0,0.1,0,0.1,0,0.2c-0.1,0.2-0.2,0.4-0.3,0.5
		c-0.1,0.2-0.2,0.4-0.2,0.6s-0.1,0.4-0.2,0.6c0,0.2-0.1,0.4-0.1,0.6s0,0.4,0,0.6s0,0.4,0,0.6C122.7,28.2,122.8,28.6,122.9,29.1
		C123,29,123,29.1,122.9,29.1L122.9,29.1z"/>
</g>
<g id="SPLINE-16">
	<path class="st0" d="M123.4,24.2L123.4,24.2c-0.1-0.1-0.1-0.1,0-0.2l0,0c0-0.1,0.1-0.2,0.1-0.2c0.1-0.2,0.3-0.5,0.4-0.7
		c0.1-0.1,0.1-0.1,0.2,0l0,0c0,0.1,0,0.1,0,0.2c-0.1,0.2-0.3,0.4-0.4,0.7l-0.1,0.2C123.6,24.2,123.5,24.3,123.4,24.2L123.4,24.2z"/>
</g>
<g id="SPLINE-17">
	<path class="st0" d="M124,23.2L124,23.2c-0.1-0.1-0.1-0.1,0-0.2l0,0c0.2-0.3,0.3-0.5,0.5-0.8l0.5-0.7c0.3-0.4,0.6-0.8,1-1.2
		s0.5-0.6,0.7-0.8l0.3-0.3c0.1-0.1,0.1-0.1,0.2,0l0,0c0.1,0.1,0.1,0.2,0,0.2l-0.3,0.3l-0.7,0.8l-0.9,1.2l-0.5,0.7
		c-0.2,0.3-0.4,0.5-0.5,0.8C124.2,23.2,124.1,23.2,124,23.2L124,23.2z"/>
</g>
<g id="SPLINE-18">
	<path class="st0" d="M128.8,21.6c-0.1,0-0.1-0.1-0.1-0.1v-0.3c0-0.3,0-0.5,0-0.8c0-0.1,0.1-0.1,0.1-0.1l0,0c0.1,0,0.1,0,0.1,0.1
		s0,0.5,0,0.8v0.3C129,21.5,128.9,21.6,128.8,21.6z"/>
</g>
<path class="st1" d="M149,30.2L149,30.2v-7.5l0,0l0,0l0,0l0,0l0,0l0,0l0,0l0,0h5.6v-0.3c0-0.1,0.1-0.1,0.1-0.1l0,0h1
	c0.1,0,0.1,0,0.1,0.1v0.1h2.4v-1.3c0-0.1,0-0.1,0.1-0.1l0,0h1c0.1,0,0.1,0,0.1,0.1l0,0v0.9h3.7l0,0l0,0l0,0l0,0V22l0.1-0.1l0.2-0.2
	l0.2-0.1l0.5-0.2l0.3-0.1h0.2h0.3h0.3h0.3h0.2h0.3l0.5,0.2l0.2,0.1l0.2,0.2l0.1,0.1V22l0,0v0.1l0,0l0,0v0.8l0,0V23v0.1l0,0l0.1,0.1
	h1.3l0,0l0.1-0.1V23l0,0v-5.2l0,0v-0.1l0,0l0,0l0,0l0,0l0,0h2.2l0,0h0.1h0.1l0,0l0,0l0,0l0.3,0.4l0.7,0.9l0.3,0.5l0.3,0.5l0.3,0.5
	L173,21l0.2,0.5l0.2,0.5l0.2,0.5l0.2,0.5l0.1,0.5l0.1,0.6v0.6v0.6v0.6V27v0.6v0.6v0.6l-0.1,0.5l-0.1,0.6l-0.2,0.5l-0.2,0.5l-0.2,0.5
	l-0.2,0.5l-0.2,0.5l-0.3,0.5l-0.3,0.5l-0.3,0.5l-0.3,0.5l-0.3,0.5l-0.3,0.4v0.1l0,0h-1.6l0,0l0,0l0,0l0,0l0,0v-0.1l0,0V30l0,0v-0.1
	l-0.1-0.1h-0.1H169h-1h-0.1l0,0l0,0v0.1v0.9l0,0v0.1V31l0,0l0,0l0,0l-0.1,0.1l-0.2,0.2l-0.2,0.1l-0.5,0.2h-0.3h-0.2h-0.3h-0.3h-0.3
	h-0.2l-0.3-0.1l-0.5-0.2l-0.2-0.1L164,31l-0.1-0.1l0,0l0,0l0,0v-0.1l0,0l0,0h-4.3v1c0,0.1,0,0.1-0.1,0.1l0,0h-0.9
	c-0.1,0-0.1,0-0.1-0.1l0,0v-1H156v0.1c0,0.1-0.1,0.1-0.1,0.1h-1c-0.1,0-0.1,0-0.1-0.1l0,0v-0.3h-5.6l0,0l0,0l0,0l0,0l0,0v-0.3H149
	V30.2z M149.5,22.6v7.8h5.3v-7.8L149.5,22.6z M155.1,30.4v0.3h0.7v-8.6h-0.7V30.4z M156,22.4v8.1h2.4v-8.1H156z M158.7,22.3v9.3h0.7
	V21.3h-0.7V22.3z M159.6,22.3v8.3h3.5v-8.4L159.6,22.3z M163.4,21.9v9l0.1,0.1l0.2,0.1l0.2,0.1l0.4,0.2h0.2h0.2h0.7h0.2h0.2l0.4-0.2
	l0.2-0.1l0.3-0.3v-9l-0.1-0.1l-0.2-0.1l-0.2-0.1l-0.4-0.2h-0.2h-0.2h-0.2H165h-0.2h-0.2l-0.2,0.1l-0.4,0.2l-0.2,0.1L163.4,21.9z
	 M167.1,23.3v6.3h0.1h0.1l0,0v-6l0,0h-0.1L167.1,23.3z M167.6,23.4v6h0.7v-6H167.6z M168.5,23.4v6h0.1h0.1l0,0v-6.3l0,0h-0.1
	L168.5,23.4z M169.3,17.7v17.5h1.8V17.6L169.3,17.7z M171.6,18v16.8l0.1-0.2l0.7-0.9l0.3-0.5l0.3-0.5l0.3-0.5l0.2-0.5l0.2-0.5
	l0.2-0.5l0.2-0.5l0.2-0.5l0.1-0.5l0.1-0.5l0.1-1.1V27v-1.1v-0.6v-0.5l-0.1-0.6l-0.1-0.5l-0.1-0.5l-0.2-0.5l-0.2-0.5l-0.2-0.5
	l-0.2-0.5l-0.2-0.5L173,20l-0.3-0.5l-0.3-0.5L171.6,18z"/>
<polyline class="st0" points="187.8,32.1 187.8,19.9 178.3,26 "/>
<rect x="188.8" y="23.7" class="st0" width="1.8" height="4.7"/>
<rect x="191.6" y="23.7" class="st0" width="1.8" height="4.7"/>
<rect x="194.4" y="23.7" class="st0" width="1.8" height="4.7"/>
<rect x="197.2" y="23.7" class="st0" width="1.8" height="4.7"/>
<g id="LINE-127">
	<path class="st0" d="M53.8,30.7c0-0.1,0-0.1,0.1-0.1l0,0h6.4c0.1,0,0.1,0.1,0.1,0.1c0,0.1-0.1,0.1-0.1,0.1H54
		C53.9,30.8,53.8,30.8,53.8,30.7L53.8,30.7z"/>
</g>
<g id="LINE-128">
	<path class="st0" d="M46.4,29.7c0-0.1,0.1-0.1,0.1-0.1h3.9c0.1,0,0.1,0.1,0.1,0.1c0,0.1-0.1,0.1-0.1,0.1l0,0h-3.9
		C46.4,29.8,46.4,29.8,46.4,29.7z"/>
</g>
<g id="LINE-129">
	<path class="st0" d="M50.3,29.3c0-0.1,0.1-0.1,0.1-0.1H54c0.1,0,0.1,0.1,0.1,0.1l0,0c0,0.1-0.1,0.1-0.1,0.1l0,0h-3.6L50.3,29.3z"/>
</g>
<g id="LINE-130">
	<path class="st0" d="M50.3,23.6c0-0.1,0.1-0.1,0.1-0.1H54c0.1,0,0.1,0.1,0.1,0.1l0,0c0,0.1,0,0.1-0.1,0.1l0,0h-3.6L50.3,23.6z"/>
</g>
<g id="LINE-131">
	<path class="st0" d="M46.4,23.1c0-0.1,0.1-0.1,0.1-0.1l0,0h3.9c0.1,0,0.1,0.1,0.1,0.1c0,0.1-0.1,0.1-0.1,0.1l0,0h-3.9
		C46.4,23.3,46.4,23.2,46.4,23.1L46.4,23.1z"/>
</g>
<g id="LINE-132">
	<path class="st0" d="M53.8,22.2c0-0.1,0.1-0.1,0.1-0.1l0,0h6.4c0.1,0,0.1,0.1,0.1,0.1l0,0c0,0.1,0,0.1-0.1,0.1l0,0H54
		C53.9,22.3,53.8,22.2,53.8,22.2L53.8,22.2z"/>
</g>
<g id="LINE-133">
	<path class="st0" d="M46,29.3L46,29.3c0-0.1,0.1-0.2,0.1-0.1l0,0l0.4,0.3c0,0,0,0.1,0,0.2c0,0-0.1,0-0.2,0L46,29.3
		C46,29.4,46,29.4,46,29.3z"/>
</g>
<g id="LINE-134">
	<path class="st0" d="M46,29.3v-5.8c0-0.1,0.1-0.1,0.1-0.1c0.1,0,0.1,0.1,0.1,0.1l0,0v5.8c0,0.1-0.1,0.1-0.1,0.1
		C46.1,29.5,46,29.4,46,29.3z"/>
</g>
<g id="LINE-135">
	<path class="st0" d="M46.4,29.7v-6.6c0-0.1,0.1-0.1,0.1-0.1l0,0c0.1,0,0.1,0.1,0.1,0.1v6.6c0,0.1-0.1,0.1-0.1,0.1
		C46.4,29.8,46.4,29.8,46.4,29.7L46.4,29.7z"/>
</g>
<g id="LINE-136">
	<path class="st0" d="M50.3,29.7v-6.6c0-0.1,0.1-0.1,0.1-0.1l0,0c0.1,0,0.1,0,0.1,0.1l0,0v6.6c0,0.1-0.1,0.1-0.1,0.1l0,0
		C50.4,29.8,50.3,29.8,50.3,29.7z"/>
</g>
<g id="LINE-137">
	<path class="st0" d="M53.8,30.7v-8.5c0-0.1,0.1-0.1,0.1-0.1c0.1,0,0.1,0.1,0.1,0.1v8.5c0,0.1-0.1,0.1-0.1,0.1
		C53.9,30.8,53.8,30.7,53.8,30.7z"/>
</g>
<g id="LINE-138">
	<path class="st0" d="M60.2,30.7v-8.5c0-0.1,0.1-0.1,0.1-0.1c0.1,0,0.1,0.1,0.1,0.1v8.5c0,0.1-0.1,0.1-0.1,0.1
		C60.3,30.8,60.2,30.7,60.2,30.7z"/>
</g>
<g id="LINE-139">
	<path class="st0" d="M46,23.5C46,23.5,46,23.4,46,23.5l0.4-0.5c0,0,0.1,0,0.2,0c0,0,0,0.1,0,0.2l-0.4,0.3c0,0-0.1,0.1-0.1,0
		C46.1,23.6,46,23.6,46,23.5L46,23.5z"/>
</g>
<g id="ARC-58">
	<path class="st0" d="M60.2,30.7v-0.1c0,0,0.1-0.1,0.1,0l0,0c2.3,4.2,7.6,5.8,11.9,3.5s5.8-7.6,3.5-11.9c-2.3-4.2-7.6-5.8-11.8-3.5
		c-1.5,0.8-2.7,2-3.5,3.5c0,0.1-0.1,0.1-0.2,0c-0.1,0-0.1-0.1,0-0.2c2.3-4.4,7.8-6.1,12.2-3.8s6.1,7.8,3.8,12.2
		c-0.8,1.6-2.2,2.9-3.8,3.8C68,36.6,62.6,35,60.2,30.7L60.2,30.7z"/>
</g>
<polyline class="st0" points="78.8,20.5 78.8,32.7 88.3,26.6 "/>
<rect x="76" y="24.3" class="st0" width="1.8" height="4.7"/>
<rect x="73.2" y="24.3" class="st0" width="1.8" height="4.7"/>
<rect x="70.4" y="24.3" class="st0" width="1.8" height="4.7"/>
<rect x="67.6" y="24.3" class="st0" width="1.8" height="4.7"/>
<rect x="44.6" y="51.9" class="st0" width="11.3" height="11.3"/>
<path class="st2" d="M51.7,61.6h-1.5v-5.7c-0.6,0.5-1.2,0.9-1.9,1.1v-1.4c0.5-0.2,0.9-0.4,1.3-0.7c0.4-0.3,0.7-0.8,0.9-1.3h1.2V61.6
	z"/>
<rect x="144.7" y="51.9" class="st0" width="11.3" height="11.3"/>
<rect x="261" y="51.9" class="st0" width="11.3" height="11.3"/>
<g>
	<path class="st2" d="M153.1,60.3v1.5h-5.8c0.1-0.6,0.2-1.1,0.6-1.6s0.9-1.2,1.9-2.1c0.7-0.7,1.2-1.2,1.4-1.4c0.2-0.3,0.3-0.7,0.3-1
		c0-0.4-0.1-0.6-0.3-0.8s-0.5-0.3-0.8-0.3c-0.3,0-0.6,0.1-0.8,0.3s-0.3,0.6-0.4,1l-1.6-0.2c0.1-0.9,0.4-1.6,0.9-2s1.2-0.6,1.9-0.6
		c0.8,0,1.5,0.2,2,0.7s0.7,1,0.7,1.7c0,0.4-0.1,0.8-0.2,1.1s-0.4,0.7-0.7,1.1c-0.2,0.3-0.6,0.6-1.1,1.1s-0.8,0.8-1,0.9
		s-0.3,0.3-0.3,0.5H153.1z"/>
</g>
<g>
	<path class="st2" d="M263.7,59.5l1.6-0.2c0.1,0.4,0.2,0.7,0.4,0.9s0.5,0.3,0.8,0.3c0.3,0,0.6-0.1,0.9-0.4s0.3-0.6,0.3-1
		c0-0.4-0.1-0.7-0.3-1s-0.5-0.4-0.8-0.4c-0.2,0-0.5,0-0.8,0.1l0.2-1.3c0.4,0,0.8-0.1,1-0.3s0.4-0.5,0.4-0.8c0-0.3-0.1-0.5-0.3-0.7
		s-0.4-0.3-0.7-0.3c-0.3,0-0.5,0.1-0.7,0.3s-0.3,0.5-0.4,0.9l-1.5-0.3c0.1-0.5,0.3-0.9,0.5-1.2s0.5-0.6,0.9-0.7s0.8-0.3,1.3-0.3
		c0.8,0,1.5,0.3,1.9,0.8c0.4,0.4,0.6,0.9,0.6,1.4c0,0.8-0.4,1.4-1.2,1.8c0.5,0.1,0.9,0.3,1.2,0.7s0.4,0.8,0.4,1.3
		c0,0.8-0.3,1.4-0.8,1.9s-1.2,0.8-2.1,0.8c-0.8,0-1.4-0.2-1.9-0.7S263.8,60.2,263.7,59.5z"/>
</g>
</svg>
