<svg id="Layer_1" data-name="Layer 1" xmlns="http://www.w3.org/2000/svg" viewBox="0 0 91 89"><defs><style>.cls-1,.cls-2{fill:#231f20;}.cls-2{font-size:30.69px;font-family:ArialNarrow, Arial;}</style></defs><path class="cls-1" d="M62.6,59.42v.83H54.32v-.83h.34a2,2,0,0,0,1.91-1.16,10.57,10.57,0,0,0,.37-3.65V34.14a15.71,15.71,0,0,0-.2-3.23,2,2,0,0,0-.64-1,2.24,2.24,0,0,0-1.44-.57h-.34v-.83H62.6v.83h-.36a2,2,0,0,0-1.88,1.16A10.34,10.34,0,0,0,60,34.14V54.61a16.65,16.65,0,0,0,.19,3.22,2,2,0,0,0,.66,1,2.12,2.12,0,0,0,1.41.57Zm-12.79,0v.83H41.53v-.83h.34a2,2,0,0,0,1.91-1.16,10.48,10.48,0,0,0,.38-3.65V34.14A15.47,15.47,0,0,0,44,30.91a1.92,1.92,0,0,0-.64-1,2.24,2.24,0,0,0-1.44-.57h-.34v-.83h8.28v.83h-.35a2,2,0,0,0-1.88,1.16,10,10,0,0,0-.39,3.66V54.61a15.6,15.6,0,0,0,.2,3.22,1.93,1.93,0,0,0,.65,1,2.15,2.15,0,0,0,1.42.57ZM37,59.42v.83H28.74v-.83h.35A2,2,0,0,0,31,58.26a10.48,10.48,0,0,0,.38-3.65V34.14a16.5,16.5,0,0,0-.2-3.23,2,2,0,0,0-.64-1,2.24,2.24,0,0,0-1.44-.57h-.35v-.83H37v.83h-.36a2,2,0,0,0-1.88,1.16,10.25,10.25,0,0,0-.39,3.66V54.61a16.37,16.37,0,0,0,.2,3.22,1.89,1.89,0,0,0,.66,1,2.12,2.12,0,0,0,1.41.57ZM7.5,44.38,45.62,81.81,83.73,44.38,45.62,6.94ZM45.62,87.1,2.12,44.38,45.62,1.65l43.5,42.73Z"/><text class="cls-2" transform="translate(89.12 52.64)"> </text></svg>