<svg id="Layer_1" data-name="Layer 1" xmlns="http://www.w3.org/2000/svg" xmlns:xlink="http://www.w3.org/1999/xlink" viewBox="0 0 144.94 35.61"><defs><style>.cls-1{fill:none;}.cls-2{clip-path:url(#clip-path);}.cls-3{fill:#231f20;}</style><clipPath id="clip-path"><rect class="cls-1" x="1.69" y="1.51" width="141.63" height="32.58"/></clipPath></defs><g class="cls-2"><path class="cls-3" d="M140.83,5.45a2.5,2.5,0,1,1-2.5,2.5,2.51,2.51,0,0,1,2.5-2.5m0,4.48a1.94,1.94,0,0,0,1.91-2,1.92,1.92,0,1,0-1.91,2m-.15-1.71h-.29V9.35h-.54V6.51h1c.83,0,1.13.22,1.13.85a.78.78,0,0,1-.73.84L142,9.35h-.61Zm-.29-.46h.54c.31,0,.51-.07.51-.42s-.19-.37-.52-.37h-.53Z"/><path class="cls-3" d="M3.78,6.65a5,5,0,0,0-2.09,3.94v1.34c0,3.5,2.06,5.28,6.12,5.28H12.7a3.43,3.43,0,0,1,2.61.81c.57.64.61.78.72,2.61l0,1.3c0,2.47-1.11,3.57-3.61,3.57H1.78l-.05,1.62h10.7c2.19,0,3.13-.35,4.19-1.57a5.46,5.46,0,0,0,1.12-3.89v-1c0-3.35-1.74-5.19-4.89-5.19h-5c-2,0-2.65-.15-3.45-.84a3,3,0,0,1-1-2.7V10.55A3,3,0,0,1,4.62,8.09c.79-.57.9-.61,3-.61H17.89V5.81H7.54a6.4,6.4,0,0,0-3.76.84"/><path class="cls-3" d="M37.79,25.5H28c-2.87,0-4.45-1.5-4.45-4.22V5.82H21.92V21.28a5.28,5.28,0,0,0,1.83,4.45A5.48,5.48,0,0,0,28,27.12h9.76V28.5a3.22,3.22,0,0,1-1,2.82c-.77.74-1.32,1-3.06,1H21.92v1.78H33.65c3.69,0,5.81-2.07,5.81-5.69V5.82H37.79Z"/><path class="cls-3" d="M54.54,5.81H50.16a7.25,7.25,0,0,0-4.55,1.43C44.36,8.29,44,9.36,44,12v9c0,2.68.47,3.9,1.92,5,1.27,1,1.82,1.16,5,1.16h9v1c0,2.92-1.51,4.34-4.61,4.34H44v1.66H54.39c5.07,0,7.23-1.83,7.23-6.12V12.05c0-2.31-.45-3.7-1.53-4.65a8.41,8.41,0,0,0-5.55-1.59M60,12.24V25.5H50.81c-2.58,0-2.82-.12-3.8-.81s-1.34-1.53-1.34-3.76v-9c0-2,.16-2.53,1-3.36s1.59-1,3.55-1h4.84A5.7,5.7,0,0,1,59.13,8.8a3,3,0,0,1,.8,1.89A7.72,7.72,0,0,1,60,12.24"/><path class="cls-3" d="M81.5,7c-1.18-1-1.84-1.16-4.16-1.16h-5c-2.38,0-3,.11-4.31,1.2-1.55,1.27-2,2.42-2,5.11v9c0,2.59.45,3.7,2,4.93,1.27.95,1.91,1.12,4.31,1.12h5c2.32,0,2.93-.17,4.08-1.12,1.47-1.15,2-2.4,2-4.93v-9c0-2.6-.47-3.9-1.88-5.15M69,8.28c1-.73,1.26-.8,3.3-.8h5c2,0,2.32.09,3.1.79a3.92,3.92,0,0,1,1.32,3.47V21.5c0,1.67-.31,2.42-1.31,3.19-.83.66-1.22.81-3.11.81h-5c-2,0-2.43-.16-3.29-.8-1.06-.87-1.35-1.58-1.35-3.27V11.74C67.66,10,68,9.12,69,8.28"/><path class="cls-3" d="M98.91,5.81H94c-2.1,0-3.16.25-4.19,1a5.23,5.23,0,0,0-2.05,4.46V27.13h1.67V11.2a3.72,3.72,0,0,1,1.41-3.07A5.09,5.09,0,0,1,94,7.48h5a5.27,5.27,0,0,1,3.12.65,3.66,3.66,0,0,1,1.41,3.07V27.13h1.66V11.24c0-3.75-1.91-5.43-6.19-5.43"/><path class="cls-3" d="M112.51,1.51a1.2,1.2,0,0,0-1.12,1.31,1.3,1.3,0,0,0,1.2,1.35,1.39,1.39,0,0,0,1.35-1.39,1.36,1.36,0,0,0-1.43-1.27"/></g><rect class="cls-3" x="111.62" y="5.81" width="2.17" height="21.31"/><polygon class="cls-3" points="128.34 16.47 136.56 5.81 134.37 5.81 127.28 15.14 120.11 5.81 117.92 5.81 126.26 16.51 117.76 27.13 119.95 27.13 127.31 17.83 134.53 27.13 136.68 27.13 128.34 16.47"/></svg>