<svg id="Layer_1" data-name="Layer 1" xmlns="http://www.w3.org/2000/svg" xmlns:xlink="http://www.w3.org/1999/xlink" viewBox="0 0 147.87 40.3"><defs><style>.cls-1{fill:none;}.cls-2{clip-path:url(#clip-path);}.cls-3{fill:#8a8c8e;}.cls-4{fill:#231f20;}</style><clipPath id="clip-path"><rect class="cls-1" x="1.69" y="4.13" width="141.63" height="31.87"/></clipPath></defs><g class="cls-2"><path class="cls-3" d="M4.93,29.76V26.37H7.71c1.5,0,2.33.34,2.33,1.69,0,1.14-.74,1.7-2.2,1.7ZM2.58,24.37V35.75H4.93v-4H7.85c.3,0,4.78.46,4.78-3.7,0-2.54-1.23-3.69-4.88-3.69Z"/><path class="cls-3" d="M17.11,29.3V26.36H20c1.44,0,2.19.3,2.19,1.46,0,1.5-1,1.48-2.18,1.48Zm7.46-1.52c-.08-2.6-1.49-3.41-4-3.41H14.75V35.75h2.34V31.28h2.85l2.53,4.47h2.58L22.3,31a2.88,2.88,0,0,0,2.27-3.19"/><path class="cls-3" d="M29.17,30c0-2.69,1.23-4,3.13-4s3.14.81,3.14,4c-.07,2.39-.71,4-3.14,4-2.91,0-3.13-2.21-3.13-4.07m-2.52,0c0,5.61,3.91,6,5.67,6,2.89-.07,5.59-1.25,5.66-5.94,0-2.67-.52-5.92-5.69-5.92-2.54,0-5.61.66-5.64,5.89"/><path class="cls-3" d="M42.81,29.14c.08-1.65.76-2.86,3-2.86h3.82V24.37H46c-5.68,0-5.58,2.95-5.58,6.17v5.21h2.38v-4.7h6.8V29.14Z"/><path class="cls-3" d="M57.21,33.82c-1.6,0-2.71-.61-2.71-2.85h6.6V29H54.55c0-1.87,1-2.76,2.66-2.76H61.1V24.37H57.17c-3.3.13-5.34,1.3-5.34,5.9,0,3.9,2.18,5.48,5.28,5.48h4V33.82Z"/><path class="cls-3" d="M67.92,29.15c-.87,0-1.55-.39-1.55-1.27s.66-1.53,1.9-1.53h5.88v-2H67.89c-2.67,0-4,1-4,3.41s1.35,3.3,3.77,3.3h2.8c1.18.05,1.74.35,1.74,1.39s-.74,1.29-1.89,1.29h-6v2h6.34c3.56,0,3.94-1.86,3.94-3.4,0-3.08-2-3.2-3.61-3.2Z"/><path class="cls-3" d="M81.15,29.15c-.88,0-1.56-.39-1.56-1.27s.66-1.53,1.9-1.53h5.88v-2H81.11c-2.67,0-3.94,1-3.94,3.41s1.34,3.3,3.76,3.3h2.8c1.18.05,1.75.35,1.75,1.39s-.75,1.29-1.89,1.29h-6v2H84c3.56,0,4-1.86,4-3.4,0-3.08-2-3.2-3.62-3.2Z"/></g><rect class="cls-3" x="91.02" y="24.37" width="2.46" height="11.38"/><g class="cls-2"><path class="cls-3" d="M98.71,30c0-2.69,1.23-4,3.14-4s3.13.81,3.13,4c-.06,2.39-.71,4-3.13,4-2.92,0-3.14-2.21-3.14-4.07m-2.52,0c0,5.61,3.92,6,5.68,6,2.88-.07,5.59-1.25,5.65-5.94,0-2.67-.51-5.92-5.69-5.92-2.54,0-5.61.66-5.64,5.89"/></g><polygon class="cls-3" points="117.59 24.37 117.59 32.58 112.9 24.37 109.89 24.37 109.89 35.75 112.22 35.75 112.22 27.11 117.13 35.75 119.85 35.75 119.85 24.37 117.59 24.37"/><path class="cls-3" d="M127.85,26.51,129.59,31h-3.45Zm-1.17-2.14-4.76,11.38h2.46l1-2.74h5l1.06,2.74H134l-4.84-11.38Z"/><g class="cls-2"><path class="cls-3" d="M140.51,33.92c-2.92,0-2.63-2-2.63-3.3V24.37h-2.32v6.78c.1,3.05,1.05,4.6,4.36,4.6h3.41V33.92Z"/><path class="cls-3" d="M21.51,13.72v1.9H2.67v3.84H20.28a5.05,5.05,0,0,0,5.23-4.8,5.14,5.14,0,0,0-5.29-4.89H6V8h18.5V4.13H7.52c-3.25,0-5.83,2.11-5.83,4.79A5.09,5.09,0,0,0,7,13.72Z"/><path class="cls-3" d="M31.15,8H44.84v3.3H31.15Zm-4,11.5h4V15.08H43.91c2.65,0,4.76-2.42,4.76-5.48a5.21,5.21,0,0,0-4.89-5.47H27.17Z"/><path class="cls-3" d="M54.13,8H67.64V9.81H54.13Zm17.48,11.5V15.61H54.13V13.72H71.61V9.3a5.22,5.22,0,0,0-.49-2.38,5.48,5.48,0,0,0-2.06-2.19,4.66,4.66,0,0,0-2.49-.6H56A6,6,0,0,0,51.84,5.3a4.81,4.81,0,0,0-1.58,2.62,4.37,4.37,0,0,0-.1,1V15.1a4.63,4.63,0,0,0,1.51,3A4.53,4.53,0,0,0,55,19.46Z"/><path class="cls-3" d="M77.7,13.7H92v1.91H77.7ZM96,19.46V9.15a4.82,4.82,0,0,0-4.59-5h-17V8H92V9.83H78.5a4.88,4.88,0,0,0-4.93,4.79,5,5,0,0,0,5.15,4.84Z"/><path class="cls-4" d="M98.24,19.46h4V11.85a4.43,4.43,0,0,0,.23.94,4,4,0,0,0,1,1.55,7,7,0,0,0,1.62,1.17l7,4h8.14l-13.5-7.59,13.39-7.74H112.1l-6.72,3.94a9.52,9.52,0,0,0-.85.51A5.42,5.42,0,0,0,103,9.9a4.06,4.06,0,0,0-.8,1.5l0-7.27h-4Z"/><path class="cls-4" d="M125,13.7h14.29v1.91H125Zm18.29,5.76V9.15a4.82,4.82,0,0,0-4.6-5h-17V8h17.61V9.83H125.85a4.88,4.88,0,0,0-4.94,4.79,5,5,0,0,0,5.15,4.84Z"/></g></svg>