<svg id="Layer_1" data-name="Layer 1" xmlns="http://www.w3.org/2000/svg" xmlns:xlink="http://www.w3.org/1999/xlink" viewBox="0 0 94.5 50.87"><defs><style>.cls-1{fill:none;}.cls-2{fill:#231f20;}.cls-3{clip-path:url(#clip-path);}</style><clipPath id="clip-path"><rect class="cls-1" x="1.26" y="2.1" width="91.78" height="47.02"/></clipPath></defs><polygon class="cls-2" points="47.15 2.1 36.68 5.66 36.52 11.6 42.34 13.7 47.15 11.99 51.97 13.7 57.78 11.6 57.63 5.66 47.15 2.1"/><polygon class="cls-2" points="47.15 18.16 60.37 13.33 60.11 23.41 47.15 28.35 34.2 23.41 33.93 13.33 47.15 18.16"/><polygon class="cls-2" points="84.2 38.44 84.2 40.75 87.29 40.75 87.29 49.03 89.97 49.03 89.97 40.75 93.04 40.75 93.04 38.44 84.2 38.44"/><polygon class="cls-2" points="75.48 38.44 75.48 49.03 78.16 49.03 78.16 45.12 81 45.12 83.28 42.83 78.16 42.83 78.16 40.75 83.31 40.75 83.31 38.44 75.48 38.44"/><polygon class="cls-2" points="1.26 38.44 1.26 40.75 4.35 40.75 4.35 49.03 7.03 49.03 7.03 40.75 10.1 40.75 10.1 38.44 1.26 38.44"/><g class="cls-3"><path class="cls-2" d="M51.17,46.72H46.84c-.75,0-1-.17-1-.79V41.54c0-.62.21-.79,1-.79h4.33V38.44H46.38A3.16,3.16,0,0,0,44,39.2a3.1,3.1,0,0,0-.74,2.43v4.21A3.1,3.1,0,0,0,44,48.27a3.16,3.16,0,0,0,2.43.76h4.79Z"/></g><polygon class="cls-2" points="35.36 38.44 35.36 49.03 42.2 49.03 42.2 46.72 38.04 46.72 38.04 38.44 35.36 38.44"/><g class="cls-3"><path class="cls-2" d="M53.08,38.44h6.2a3.14,3.14,0,0,1,2.43.76,3.08,3.08,0,0,1,.75,2.41v.66c0,1.87-.51,2.79-2,3.11L62.89,49H59.66l-2.1-3.58H55.75V49H53.08Zm2.67,2.2v2.6h3.08c.75,0,1-.18,1-.79v-1c0-.62-.2-.8-1-.8Z"/></g><path class="cls-2" d="M68.87,41.81l1.42,3.41H67.45Zm-1-3.41L63,49h2.87l.7-1.69h4.62L71.89,49h3l-5-10.63Z"/><g class="cls-3"><path class="cls-2" d="M17.26,40.67c.77,0,1,.16,1,.79V46c0,.62-.21.79-1,.79H14.62c-.75,0-.95-.17-.95-.79V41.46c0-.62.2-.79.95-.79Zm3.63.88a3.1,3.1,0,0,0-.74-2.43,3.18,3.18,0,0,0-2.44-.77H14.17a3.18,3.18,0,0,0-2.44.77A3.14,3.14,0,0,0,11,41.55v4.37a3.14,3.14,0,0,0,.74,2.43,3.18,3.18,0,0,0,2.44.77h3.54a3.18,3.18,0,0,0,2.44-.77,3.1,3.1,0,0,0,.74-2.43Z"/><path class="cls-2" d="M33,41.55a3.1,3.1,0,0,0-.74-2.43,3.17,3.17,0,0,0-2.44-.77H26.31a3.14,3.14,0,0,0-2.43.77,3.1,3.1,0,0,0-.75,2.43v4.37a3.1,3.1,0,0,0,.75,2.43,3.14,3.14,0,0,0,2.43.76h3.54a3.17,3.17,0,0,0,2.44-.76A3.1,3.1,0,0,0,33,45.92Zm-3.63-.88c.77,0,1,.16,1,.79V46c0,.62-.21.79-1,.79H26.76c-.75,0-1-.17-1-.79V41.46c0-.62.21-.79,1-.79Z"/></g></svg>