<svg id="Layer_1" data-name="Layer 1" xmlns="http://www.w3.org/2000/svg" xmlns:xlink="http://www.w3.org/1999/xlink" viewBox="0 0 59.28 71.02"><defs><style>.cls-1{fill:none;}.cls-2{clip-path:url(#clip-path);}.cls-3{fill:#231f20;}</style><clipPath id="clip-path"><rect class="cls-1" x="1.75" y="2.78" width="55.8" height="66.61"/></clipPath></defs><g class="cls-2"><path class="cls-3" d="M47,48H26V42.65L38.58,30V21.17a2.65,2.65,0,1,0-3.17,0v7.55L22.79,41.33V48H13.26v-7.9A2.6,2.6,0,0,0,14.32,38a2.65,2.65,0,1,0-4.23,2.11V48H1.75V25.58H11l3.51,3.51a2.31,2.31,0,0,0,0,.37,2.65,2.65,0,1,0,2.65-2.64,2.43,2.43,0,0,0-.38,0l-4.44-4.44H1.75V15.09H18.53L22.06,12a3.31,3.31,0,0,0,.56.06A2.65,2.65,0,1,0,20,9.44a1.09,1.09,0,0,0,0,.18l-2.63,2.29H1.75V2.78H40.36L47,9.42V38H40.43a2.65,2.65,0,1,0,0,3.18H47ZM40.16,69.39c3.41,0,6.85-1.94,6.85-5.93v-12H42.69v12c0,2.6-5,2.65-5,0v-12H33.37v12c0,4,3.38,5.93,6.79,5.93M22.31,55.45h2.47a1.89,1.89,0,0,1,2,2,1.87,1.87,0,0,1-2,1.82H22.31Zm.71,7.7,3.68,6h4.6v-.81l-3.79-5.61A6.12,6.12,0,0,0,31,57.3a5.76,5.76,0,0,0-6.08-6H18V69.14h4.29v-6Zm-12.18,6V55.3h4.75v-4H1.75v4H6.53V69.14ZM52.24,3a2.19,2.19,0,0,0-1.82,2.35,2.7,2.7,0,0,0,.92,2.1,1.87,1.87,0,0,0,1.32.37h0c1.44-.1,1.68-1.37,1.79-2.45.07-.69.16-1.4.68-1.52l.24,0c.71,0,1.13.81,1.13,1.55s-.34,1.43-1,1.49H55.4l0,1h.19a2.36,2.36,0,0,0,1.87-2.49,2.36,2.36,0,0,0-2.11-2.57,2.3,2.3,0,0,0-.45.05c-1.11.26-1.36,1.44-1.48,2.39-.07.74-.16,1.53-.87,1.58a.89.89,0,0,1-.64-.17,1.65,1.65,0,0,1-.53-1.26A1.32,1.32,0,0,1,52.28,4Zm5.18,7.25H51.37V8.13h-.95v5.19h.95v-2.1h6.05Zm0,8.14H52.58L57.42,15v-.79H50.49v1h4.88l-4.88,3.38v.77h6.93Zm-3,5.51V20.74h-1v3.13H51.42v-3.2h-1v4.21h7V20.66h-1v3.21Zm3,7H52.58l4.84-3.35v-.79H50.49v1h4.88L50.49,31v.78h6.93ZM54,40.28a3.6,3.6,0,1,0-3.6-3.6,3.58,3.58,0,0,0,3.6,3.6m0-1a2.57,2.57,0,1,1,2.56-2.57A2.57,2.57,0,0,1,54,39.25m.16,5.39H51.5V43.11a1.31,1.31,0,0,1,2.62,0Zm-3.63,1h6.93v-1H55.11V43.11a2.31,2.31,0,0,0-4.62,0Zm2,6.86,2.69-1.81v-.56l-2.69-1.81h4.88v-1H50.49v.79l3.37,2.29L50.49,52.7v.81h6.93v-1ZM54,62a3.6,3.6,0,1,0-3.6-3.59A3.57,3.57,0,0,0,54,62m0-1a2.57,2.57,0,1,1,2.56-2.56A2.56,2.56,0,0,1,54,60.94m0,8.45a3.62,3.62,0,0,0,2.47-1,3.36,3.36,0,0,0-1.62-5.69v1A2.36,2.36,0,0,1,56.48,66a2.53,2.53,0,0,1-4.28,1.75A2.48,2.48,0,0,1,51.42,66,2.29,2.29,0,0,1,53,63.73v-1A3.28,3.28,0,0,0,50.43,66a3.48,3.48,0,0,0,1.06,2.44,3.62,3.62,0,0,0,2.49,1"/></g></svg>