<svg id="Layer_1" data-name="Layer 1" xmlns="http://www.w3.org/2000/svg" xmlns:xlink="http://www.w3.org/1999/xlink" viewBox="0 0 105.65 38.54"><defs><style>.cls-1{fill:none;}.cls-2{clip-path:url(#clip-path);}.cls-3{fill:#231f20;}.cls-4{fill:#4d4d4f;}</style><clipPath id="clip-path"><rect class="cls-1" x="1.35" y="1.57" width="103.46" height="35.6"/></clipPath></defs><g class="cls-2"><path class="cls-3" d="M2.88,5.33A3.63,3.63,0,0,0,1.35,8.2v1C1.35,11.74,2.86,13,5.82,13H9.39a2.55,2.55,0,0,1,1.92.59c.41.47.44.57.52,1.91l0,.95c0,1.8-.81,2.61-2.64,2.61H1.42l0,1.18H9.19c1.61,0,2.29-.25,3.07-1.15a3.94,3.94,0,0,0,.81-2.84v-.76c0-2.44-1.26-3.79-3.57-3.79H5.82c-1.48,0-1.93-.11-2.52-.62a2.2,2.2,0,0,1-.73-2v-1a2.22,2.22,0,0,1,.92-1.79c.58-.42.66-.45,2.17-.45h7.53V4.72H5.63a4.61,4.61,0,0,0-2.75.61"/><path class="cls-3" d="M27.73,19.1H20.6c-2.1,0-3.26-1.1-3.26-3.09V4.72H16.13V16a3.84,3.84,0,0,0,1.34,3.25,4,4,0,0,0,3.13,1h7.13v1A2.38,2.38,0,0,1,27,23.35a2.6,2.6,0,0,1-2.23.72h-8.6v1.3H24.7c2.7,0,4.24-1.52,4.24-4.16V4.72H27.73Z"/><path class="cls-3" d="M44,9.41V19.1H37.24c-1.89,0-2.06-.09-2.78-.59s-1-1.12-1-2.75V9.16c0-1.47.12-1.86.74-2.46s1.17-.77,2.6-.77h3.53a4.16,4.16,0,0,1,3,1,2.22,2.22,0,0,1,.59,1.38A5.7,5.7,0,0,1,44,9.41M40,4.72h-3.2a5.28,5.28,0,0,0-3.32,1c-.91.76-1.18,1.55-1.18,3.48v6.55c0,2,.34,2.84,1.4,3.65s1.34.84,3.63.84h6.6V21c0,2.13-1.1,3.17-3.37,3.17H32.26v1.22h7.59c3.7,0,5.28-1.34,5.28-4.47V9.27c0-1.68-.33-2.7-1.11-3.4A6.24,6.24,0,0,0,40,4.72"/><path class="cls-3" d="M50.53,6.52c.69-.53.91-.59,2.41-.59h3.65c1.44,0,1.69.07,2.26.58a2.87,2.87,0,0,1,1,2.53v7.14a2.45,2.45,0,0,1-1,2.33c-.61.47-.89.59-2.27.59H52.94c-1.48,0-1.78-.12-2.41-.59a2.51,2.51,0,0,1-1-2.39V9a2.73,2.73,0,0,1,1-2.52m9.13-1c-.86-.71-1.35-.84-3-.84H52.94c-1.75,0-2.21.07-3.16.87-1.13.93-1.45,1.77-1.45,3.74v6.54c0,1.89.32,2.7,1.46,3.6.92.69,1.39.81,3.15.81h3.68c1.69,0,2.14-.12,3-.81,1.07-.84,1.43-1.75,1.43-3.6V9.33c0-1.91-.35-2.86-1.37-3.77"/><path class="cls-3" d="M72.37,4.72H68.75a4.83,4.83,0,0,0-3.07.7,3.85,3.85,0,0,0-1.49,3.26v11.6h1.22V8.65a2.7,2.7,0,0,1,1-2.24,3.73,3.73,0,0,1,2.31-.48h3.62a3.79,3.79,0,0,1,2.28.48,2.68,2.68,0,0,1,1,2.24V20.28H76.9V8.68c0-2.74-1.4-4-4.53-4"/><path class="cls-3" d="M82.31,1.57a.88.88,0,0,0-.82,1,1,1,0,0,0,.88,1,1,1,0,0,0,1-1,1,1,0,0,0-1-.93"/></g><rect class="cls-3" x="81.86" y="4.72" width="1.19" height="15.57"/><polygon class="cls-3" points="93.87 12.5 99.88 4.72 98.28 4.72 93.09 11.53 87.86 4.72 86.26 4.72 92.35 12.53 86.14 20.28 87.75 20.28 93.12 13.49 98.39 20.28 99.97 20.28 93.87 12.5"/><g class="cls-2"><path class="cls-4" d="M49,30.73v1.61a4.93,4.93,0,0,0,1.17,3.32,4,4,0,0,0,3.09,1.49l.27,0a4.82,4.82,0,0,0,2.05-.46,5.54,5.54,0,0,0,1.68-1.19L55.71,34a5.84,5.84,0,0,1-1,.8,2.38,2.38,0,0,1-1.18.34,2.07,2.07,0,0,1-1.78-.84,3.5,3.5,0,0,1-.57-2.11v-.92l-2.06-1.75A6.4,6.4,0,0,0,49,30.73"/><path class="cls-4" d="M50.16,25.79a5.14,5.14,0,0,0-1,2.18l2.06,1.75v-.49a3.62,3.62,0,0,1,.55-2.06,2,2,0,0,1,1.71-.88,2.43,2.43,0,0,1,1.23.28,2.7,2.7,0,0,1,.43.31l.4.41,1.56-1.57a4.66,4.66,0,0,0-3.59-1.51h-.23a4,4,0,0,0-3.11,1.58"/><path class="cls-3" d="M63,31.63V29.36a2.59,2.59,0,0,0-.11-.81,1.49,1.49,0,0,0-.29-.53,1.57,1.57,0,0,0-.72-.41,2.08,2.08,0,0,0-.62-.11H60.07a2.53,2.53,0,0,0-.74.09,1.25,1.25,0,0,0-.55.36,1.45,1.45,0,0,0-.36.57,2,2,0,0,0-.11.72V31.6a1.77,1.77,0,0,0,.51,1.27,1.42,1.42,0,0,0,.54.34,1.91,1.91,0,0,0,.6.11h1.45a1.45,1.45,0,0,0,.66-.15,1.8,1.8,0,0,0,.5-.36,1.36,1.36,0,0,0,.36-.52,1.82,1.82,0,0,0,.11-.66m.42.06a1.9,1.9,0,0,1-.19.9,2.51,2.51,0,0,1-.44.58,1.72,1.72,0,0,1-.56.38,1.93,1.93,0,0,1-.79.18H59.92a1.84,1.84,0,0,1-.77-.18,2.52,2.52,0,0,1-.69-.46,2,2,0,0,1-.57-1.31V29a1.87,1.87,0,0,1,.14-.67,2,2,0,0,1,1-1.05,1.86,1.86,0,0,1,.72-.15h1.65a2.18,2.18,0,0,1,.79.16,1.93,1.93,0,0,1,.72.49,1.65,1.65,0,0,1,.4.73,3,3,0,0,1,.1.72Z"/><path class="cls-3" d="M60.07,27.76a2.4,2.4,0,0,0-.67.08,1,1,0,0,0-.43.28,1.27,1.27,0,0,0-.31.48,2,2,0,0,0-.1.64V31.6A1.53,1.53,0,0,0,59,32.69a1.16,1.16,0,0,0,.44.27,1.49,1.49,0,0,0,.52.1h1.45a1.26,1.26,0,0,0,.55-.12,1.62,1.62,0,0,0,.44-.31,1.13,1.13,0,0,0,.29-.43,1.55,1.55,0,0,0,.09-.57V29.36a2.46,2.46,0,0,0-.09-.73,1.4,1.4,0,0,0-.24-.44,1.36,1.36,0,0,0-.61-.34,1.79,1.79,0,0,0-.54-.09ZM61.48,34H59.92a2.18,2.18,0,0,1-.88-.19,2.81,2.81,0,0,1-.76-.51,2.25,2.25,0,0,1-.47-.71,2.12,2.12,0,0,1-.17-.79V29a2,2,0,0,1,.16-.77,1.92,1.92,0,0,1,.47-.7A2.23,2.23,0,0,1,59,27a2,2,0,0,1,.82-.17h1.65a2.51,2.51,0,0,1,.89.17,2.28,2.28,0,0,1,.81.56,1.89,1.89,0,0,1,.45.83,3.13,3.13,0,0,1,.11.79v2.5a2.25,2.25,0,0,1-.21,1,2.58,2.58,0,0,1-.48.64,2.07,2.07,0,0,1-.64.44,2.13,2.13,0,0,1-.9.2"/><path class="cls-3" d="M70.43,33.73H70V28.86a2.69,2.69,0,0,0-.07-.61,1.12,1.12,0,0,0-.25-.44.89.89,0,0,0-.42-.24,2,2,0,0,0-.52-.07H66.63a1.68,1.68,0,0,0-.55.08.88.88,0,0,0-.39.24,1.08,1.08,0,0,0-.24.45,1.86,1.86,0,0,0-.08.5v5H65V28.91a2.52,2.52,0,0,1,.14-.89,1.35,1.35,0,0,1,.34-.5,1.47,1.47,0,0,1,.55-.31,2.18,2.18,0,0,1,.72-.12h1.92a3.81,3.81,0,0,1,.67.05,1.31,1.31,0,0,1,.74.38,1.62,1.62,0,0,1,.34.68,3,3,0,0,1,.06.65Z"/><path class="cls-3" d="M70.69,34h-.93V28.86a2.12,2.12,0,0,0-.06-.54.88.88,0,0,0-.18-.33.73.73,0,0,0-.31-.17,1.53,1.53,0,0,0-.45-.06H66.63a1.65,1.65,0,0,0-.48.06.59.59,0,0,0-.27.18.86.86,0,0,0-.19.34,1.77,1.77,0,0,0-.06.43V34H64.7V28.92a2.79,2.79,0,0,1,.15-1,1.57,1.57,0,0,1,.41-.59A1.76,1.76,0,0,1,65.9,27a2.63,2.63,0,0,1,.8-.12h1.92a4.48,4.48,0,0,1,.72.05,1.55,1.55,0,0,1,.88.46,1.85,1.85,0,0,1,.4.79,3,3,0,0,1,.07.71Z"/><path class="cls-3" d="M77.36,33.73H77V28.86a2.69,2.69,0,0,0-.07-.61,1,1,0,0,0-.26-.44.86.86,0,0,0-.41-.24,2.06,2.06,0,0,0-.53-.07H73.56a1.79,1.79,0,0,0-.56.08.91.91,0,0,0-.38.24,1.08,1.08,0,0,0-.24.45,1.53,1.53,0,0,0-.08.5v5h-.42V28.91A2.52,2.52,0,0,1,72,28a1.35,1.35,0,0,1,.34-.5,1.47,1.47,0,0,1,.55-.31,2.18,2.18,0,0,1,.72-.12h1.92a3.81,3.81,0,0,1,.67.05,1.31,1.31,0,0,1,.74.38,1.62,1.62,0,0,1,.34.68,3,3,0,0,1,.06.65Z"/><path class="cls-3" d="M77.62,34h-.93V28.86a2.12,2.12,0,0,0-.06-.54.78.78,0,0,0-.19-.33.64.64,0,0,0-.3-.17,1.53,1.53,0,0,0-.45-.06H73.56a1.65,1.65,0,0,0-.48.06.59.59,0,0,0-.27.18.86.86,0,0,0-.19.34,1.82,1.82,0,0,0-.07.43V34h-.92V28.92a2.79,2.79,0,0,1,.15-1,1.67,1.67,0,0,1,.4-.59,1.89,1.89,0,0,1,.65-.38,2.63,2.63,0,0,1,.8-.12h1.92a4.48,4.48,0,0,1,.72.05,1.55,1.55,0,0,1,.88.46,1.85,1.85,0,0,1,.4.79,3,3,0,0,1,.07.71Z"/><path class="cls-3" d="M83.88,29.05v-.21a2,2,0,0,0,0-.47,1.19,1.19,0,0,0-.28-.5,1,1,0,0,0-.42-.28,1.34,1.34,0,0,0-.46-.09H80.45a1.56,1.56,0,0,0-.44.07,1.08,1.08,0,0,0-.45.3,1.19,1.19,0,0,0-.28.5,2,2,0,0,0,0,.47v2.24Zm.42,4.68h-4a1.69,1.69,0,0,1-1.06-.44,1.69,1.69,0,0,1-.33-.53,1.67,1.67,0,0,1-.11-.54V28.6a1.67,1.67,0,0,1,.11-.53,1.59,1.59,0,0,1,.33-.53,1.21,1.21,0,0,1,.43-.29,1.47,1.47,0,0,1,.63-.16h2.49a1.7,1.7,0,0,1,1,.44,1.68,1.68,0,0,1,.44,1.07v.72l-5.06,2.19V32a2.05,2.05,0,0,0,0,.47,1.29,1.29,0,0,0,.28.51,1.06,1.06,0,0,0,.45.29,1.27,1.27,0,0,0,.44.07H84.3Z"/><path class="cls-3" d="M80.45,27.76a1.09,1.09,0,0,0-.36.06.77.77,0,0,0-.34.22,1,1,0,0,0-.22.39,1.7,1.7,0,0,0,0,.41v1.85l4.13-1.81v0a2.09,2.09,0,0,0,0-.41,1,1,0,0,0-.22-.39.72.72,0,0,0-.31-.21,1.14,1.14,0,0,0-.38-.07ZM84.55,34H80.32a1.65,1.65,0,0,1-.55-.1,1.69,1.69,0,0,1-.69-.41,1.91,1.91,0,0,1-.39-.62,1.93,1.93,0,0,1-.12-.63V28.6a1.93,1.93,0,0,1,.12-.62,2,2,0,0,1,.38-.62,1.76,1.76,0,0,1,.52-.35,1.92,1.92,0,0,1,.73-.17h2.49a1.93,1.93,0,0,1,1.23.51,1.87,1.87,0,0,1,.4.65,1.66,1.66,0,0,1,.11.6v.89l-5,2.19V32a2.22,2.22,0,0,0,0,.41,1.06,1.06,0,0,0,.22.4.8.8,0,0,0,.34.22,1.36,1.36,0,0,0,.36.05h4.1Z"/><path class="cls-3" d="M90.16,33.73h-2.9a1.43,1.43,0,0,1-.46-.09,1.33,1.33,0,0,1-.58-.35,1.5,1.5,0,0,1-.34-.54,1.43,1.43,0,0,1-.11-.53V28.6a1.44,1.44,0,0,1,.11-.54,1.36,1.36,0,0,1,.33-.52,1.13,1.13,0,0,1,.43-.29,1.46,1.46,0,0,1,.62-.16h2.9v.41H87.38a1.55,1.55,0,0,0-.43.07,1.14,1.14,0,0,0-.46.31,1.06,1.06,0,0,0-.26.49,2,2,0,0,0,0,.47V32a1.81,1.81,0,0,0,0,.46,1,1,0,0,0,.28.51,1.06,1.06,0,0,0,.45.29,1.25,1.25,0,0,0,.43.07h2.78Z"/><path class="cls-3" d="M90.41,34H87.27a1.65,1.65,0,0,1-.55-.1,1.63,1.63,0,0,1-.69-.41,1.76,1.76,0,0,1-.39-.63,1.72,1.72,0,0,1-.13-.62V28.6a1.73,1.73,0,0,1,.13-.63,1.61,1.61,0,0,1,.38-.61,1.64,1.64,0,0,1,.52-.35,1.92,1.92,0,0,1,.73-.17h3.14v.92h-3a1,1,0,0,0-.35.06.74.74,0,0,0-.35.23.92.92,0,0,0-.21.39,2.1,2.1,0,0,0,0,.4V32a1.44,1.44,0,0,0,0,.4.86.86,0,0,0,.21.4A.91.91,0,0,0,87,33a1.34,1.34,0,0,0,.35.05h3Z"/></g><polygon class="cls-3" points="93.98 27.5 92.18 27.5 92.18 33.73 91.77 33.73 91.77 24.97 92.18 24.97 92.18 27.09 93.98 27.09 93.98 27.5"/><polygon class="cls-3" points="92.44 33.98 91.51 33.98 91.51 24.71 92.44 24.71 92.44 26.84 94.24 26.84 94.24 27.76 92.44 27.76 92.44 33.98"/></svg>