<svg id="Layer_1" data-name="Layer 1" xmlns="http://www.w3.org/2000/svg" xmlns:xlink="http://www.w3.org/1999/xlink" viewBox="0 0 150.26 44.35"><defs><style>.cls-1{fill:none;}.cls-2{clip-path:url(#clip-path);}.cls-3{fill:#636466;}.cls-4{fill:#b1b3b6;}</style><clipPath id="clip-path"><rect class="cls-1" x="3.95" y="5.98" width="143.33" height="35.59"/></clipPath></defs><g class="cls-2"><path class="cls-3" d="M30.69,35.45H24c-7,0-9.64-2.29-9.64-8.45,0-9.56,4.51-14.83,12.7-14.83h8.84l1.39-6.12H25c-7.13,0-11.47,1.21-14.52,4C6.42,13.83,4,20.87,4,28.68,4,38.3,7.44,41.57,17.72,41.57H29.33Z"/></g><polygon class="cls-3" points="46.41 33.54 53.62 33.54 56.52 20.62 62.81 33.54 70.32 33.54 74.71 14.05 67.5 14.05 64.96 25.3 59.7 14.05 50.78 14.05 46.41 33.54"/><g class="cls-2"><path class="cls-3" d="M120.59,33.54h15.73c7.15,0,11-4.28,11-12.37,0-5-2.25-7.12-7.53-7.12H125Zm10.8-14.48h4.29c3,0,3.85.66,3.85,3.08,0,3.93-2,6.4-5.14,6.4h-5.14Z"/><path class="cls-3" d="M112.18,25.3h-5.79l2.25-3.44c1.61-2.5,2.09-2.8,4.42-2.8h.51Zm-17.4,5.79-2.9-3.7c4.47-1,6.83-3.5,6.83-7.4,0-4.23-2.46-5.94-8.65-5.94H77.2L72.8,33.54h7.56l3.27-14.48h4.79c2.15,0,3.27.66,3.27,1.89,0,1.76-1,2.64-3.11,2.64H83.31l3.61,6.24c2.12,3.61,2.31,3.71,6.54,3.71H101l2.36-3.49h8l-.78,3.49h7.56l4.39-19.49h-9.11c-6.4,0-6.65.14-10.8,6Z"/><path class="cls-3" d="M38.68,14.05H35.5l-1,4.37h-4.6c-4.31,0-6.73,2.52-6.73,7.11,0,2.41,1,3.07,3.2,3.23l.65,0c-2.35-.19-3.14-1-3.14-3.06,0-4.21,2.23-6.52,6.12-6.52H35c3.07,0,3.88.61,3.88,2.91,0,4.38-2,6.71-5.65,6.71h-1l-1.06,4.7h4.29c7.29,0,11.44-4.45,11.44-12.28,0-5.28-2.17-7.21-8.17-7.21"/><path class="cls-4" d="M34.52,18.42l1-4.37H27.42c-7.18,0-11.09,4.57-11.09,13,0,4.84,2.06,6.52,8.06,6.52h6.73l1.06-4.71H28.3c-.64,0-1.91-.08-1.91-.08-2.2-.16-3.2-.82-3.2-3.23,0-4.59,2.42-7.11,6.73-7.11Z"/></g><polygon class="cls-3" points="108.41 6.05 108.41 10.93 111.47 10.93 111.47 10.09 109.43 10.09 109.43 8.87 111.01 8.87 111.01 8.02 109.43 8.02 109.43 6.89 111.47 6.89 111.47 6.05 108.41 6.05"/><polygon class="cls-3" points="112.16 6.05 112.16 10.93 114.86 10.93 114.86 10.01 113.18 10.01 113.18 6.05 112.16 6.05"/><polygon class="cls-3" points="115.42 6.05 115.42 10.93 118.48 10.93 118.48 10.09 116.45 10.09 116.45 8.87 118.02 8.87 118.02 8.02 116.45 8.02 116.45 6.89 118.48 6.89 118.48 6.05 115.42 6.05"/><g class="cls-2"><path class="cls-3" d="M120.89,11c-1.16,0-2-.68-2-2.51,0-1.63.84-2.51,2.06-2.51a2.26,2.26,0,0,1,1.45.5l-.31.7A2.17,2.17,0,0,0,121,6.83c-.56,0-1,.52-1,1.66,0,1.32.5,1.65,1,1.65a2.23,2.23,0,0,0,1.08-.39l.34.71a2.34,2.34,0,0,1-1.5.54"/></g><polygon class="cls-3" points="122.77 6.05 122.77 6.93 124.15 6.93 124.15 10.93 125.17 10.93 125.17 6.93 126.56 6.93 126.56 6.05 122.77 6.05"/><g class="cls-2"><path class="cls-3" d="M128.37,6.83h-.27V8.3h.26c.44,0,.72-.12.72-.74s-.23-.73-.71-.73m1,4.1-1.1-1.87h-.18v1.87h-1V6.05h1.35c.89,0,1.71.3,1.71,1.45a1.37,1.37,0,0,1-.85,1.41l1.22,2Z"/><path class="cls-3" d="M132.84,6.75c-.64,0-1.08.55-1.08,1.74s.44,1.72,1.08,1.72,1.08-.54,1.08-1.72-.44-1.74-1.08-1.74m0,4.25c-1.24,0-2.14-.8-2.14-2.51S131.6,6,132.84,6,135,6.77,135,8.49s-.9,2.51-2.14,2.51"/></g><polygon class="cls-3" points="138.32 6.05 138.32 8.8 136.81 6.05 135.65 6.05 135.65 10.93 136.67 10.93 136.67 7.91 138.32 10.93 139.34 10.93 139.34 6.05 138.32 6.05"/><rect class="cls-3" x="140.26" y="6.05" width="1.02" height="4.87"/><g class="cls-2"><path class="cls-3" d="M144,11c-1.17,0-2-.68-2-2.51,0-1.63.84-2.51,2.06-2.51a2.23,2.23,0,0,1,1.45.5l-.3.7a2.2,2.2,0,0,0-1.11-.35c-.57,0-1,.52-1,1.66,0,1.32.5,1.65,1,1.65a2.19,2.19,0,0,0,1.08-.39l.34.71A2.33,2.33,0,0,1,144,11"/></g></svg>