<svg id="Layer_1" data-name="Layer 1" xmlns="http://www.w3.org/2000/svg" xmlns:xlink="http://www.w3.org/1999/xlink" viewBox="0 0 218.09 29.74"><defs><style>.cls-1{fill:none;}.cls-2{clip-path:url(#clip-path);}.cls-3{fill:#939598;}.cls-4{fill:#231f20;}</style><clipPath id="clip-path"><rect class="cls-1" x="2.61" y="3.59" width="211.3" height="22.19"/></clipPath></defs><g class="cls-2"><path class="cls-3" d="M15.12,18.61H20.2a2.34,2.34,0,0,0,1.52-.37,2.63,2.63,0,0,0,.57-1L23,15.29a1.78,1.78,0,0,0,.11-.53.72.72,0,0,0-.28-.58,3,3,0,0,0-1.6-.3H16.75Zm2.68-7.7h4.43a7.36,7.36,0,0,0,1.49-.08,1.5,1.5,0,0,0,1-.68A3.7,3.7,0,0,0,25,9.41l.56-1.59a1.53,1.53,0,0,0,.08-.45c0-.55-.54-.82-1.61-.82H19.31ZM28.45,12.4a8.24,8.24,0,0,1,2.87.66,1.82,1.82,0,0,1,1.12,1.65,2,2,0,0,1-.12.67l-.86,2.45a6.09,6.09,0,0,1-.78,1.69,4.67,4.67,0,0,1-2.91,1.78,20.25,20.25,0,0,1-3.8.27H4.05c.3-.33.52-.58.65-.76A8.84,8.84,0,0,0,5.82,18.5L10.18,6a4.33,4.33,0,0,0,.24-1.43,2.25,2.25,0,0,0-.24-.94H29.07A11.42,11.42,0,0,1,32.69,4a4.07,4.07,0,0,1,1.68,1.17,2.69,2.69,0,0,1,.73,1.73A7.92,7.92,0,0,1,34.3,10a3.52,3.52,0,0,1-1.1,1.4,3.84,3.84,0,0,1-1.63.77,28,28,0,0,1-3.12.27"/><path class="cls-3" d="M51.2,13.9,49.32,7,43.11,13.9ZM57.64,3.59l4.22,15a12,12,0,0,0,.7,1.85,3.72,3.72,0,0,0,1,1.11H52.17a2.56,2.56,0,0,0,.57-1.38,6.34,6.34,0,0,0-.25-1.62L52,16.7H40.6l-2.75,3a2.33,2.33,0,0,0-.78,1.42,2.55,2.55,0,0,0,.07.44H30.63a16,16,0,0,0,3-2.54L46.78,4.6A4.41,4.41,0,0,0,45.89,4a6.49,6.49,0,0,0-1.11-.39Z"/><path class="cls-3" d="M93.45,3.59,92.15,7.3a5.16,5.16,0,0,0-1.38-.54,11.28,11.28,0,0,0-2.36-.21H80.12A5.68,5.68,0,0,0,79,6.63a1.4,1.4,0,0,0-1,1,4,4,0,0,0-.3,1c0,.44.48.66,1.46.66h7.36a5.08,5.08,0,0,1,2.75.55,2.21,2.21,0,0,1,1.14,1.86,4.77,4.77,0,0,1-.32,1.41l-1.6,4.58a8.45,8.45,0,0,1-.9,1.93,3.81,3.81,0,0,1-1.48,1.23,6.32,6.32,0,0,1-2.15.66c-.73.08-1.93.11-3.61.11H64.24l1.25-3.63a8.73,8.73,0,0,0,1.27.46,7.1,7.1,0,0,0,1.47.2h9.08a3.93,3.93,0,0,0,1.46-.17,1.63,1.63,0,0,0,.65-1,2.63,2.63,0,0,0,.2-.8c0-.42-.45-.64-1.35-.64l-1,0H71.4a8.2,8.2,0,0,1-3-.44,2.13,2.13,0,0,1-1.52-2,7.28,7.28,0,0,1,.49-2.14L68.81,7.3a5.21,5.21,0,0,1,.66-1.43,5.18,5.18,0,0,1,2.45-1.73,11.74,11.74,0,0,1,3.92-.55Z"/><path class="cls-3" d="M106.83,6.55l-1.52,4.39h9a11.4,11.4,0,0,0,2.39-.26l-1.26,3.62a7.76,7.76,0,0,0-2.86-.4h-8.35l-1.64,4.71h8.92a8.54,8.54,0,0,0,2.6-.4L113,21.57H91.57a8.73,8.73,0,0,0,.66-.76,9.53,9.53,0,0,0,1.12-2.31L97.71,6a4.33,4.33,0,0,0,.23-1.43,2.39,2.39,0,0,0-.23-.94h21.52L118,7a5.8,5.8,0,0,0-1.3-.38,12.89,12.89,0,0,0-1.61-.08Z"/><path class="cls-4" d="M121.4,3.59h23.73L144,7a4.4,4.4,0,0,0-1.84-.45h-5l-4.4,12.65a4.35,4.35,0,0,0-.25,1.43,2.32,2.32,0,0,0,.25.94H121.9c.3-.33.52-.58.66-.76a8.84,8.84,0,0,0,1.12-2.31l4.15-11.95h-5.22a8.46,8.46,0,0,0-2.39.45Z"/><path class="cls-4" d="M149.38,13.68h5.91l.51-1.5a1.76,1.76,0,0,0,.13-.59c0-.45-.42-.68-1.26-.68h-2.75a3.2,3.2,0,0,0-1.33.2,1.89,1.89,0,0,0-.69,1.07ZM162,18.73l-1.56,2.84H144.87a7.37,7.37,0,0,1-4-.88,2.92,2.92,0,0,1-1.56-2.45,3.23,3.23,0,0,1,.2-1l2-5.84q1-3,5.66-3h11.13a19.7,19.7,0,0,1,2.91.17A4.25,4.25,0,0,1,163.9,10a2.61,2.61,0,0,1,.58,1.67,3.73,3.73,0,0,1-.23,1.31l-1.13,3.29H148.48l-.43,1.23a2.37,2.37,0,0,0-.16.72.63.63,0,0,0,.21.45.92.92,0,0,0,.52.26,13.13,13.13,0,0,0,1.61.1h8.59a13.83,13.83,0,0,0,3.14-.28"/><path class="cls-4" d="M188,11.35a7.39,7.39,0,0,0-2.8-.44h-6a3.91,3.91,0,0,0-1.59.24,1.23,1.23,0,0,0-.57.49,2.33,2.33,0,0,0-.26.63l-1.81,5.18a2.45,2.45,0,0,0-.18.69c0,.37.23.62.71.73a7.92,7.92,0,0,0,1.72.14h5.08c.85,0,1.46,0,1.84-.06a6.5,6.5,0,0,0,1.26-.27l-1.6,2.89H171.92a8.67,8.67,0,0,1-4.24-.75A2.78,2.78,0,0,1,166,18.47a5.24,5.24,0,0,1,.34-1.52l1.92-5.5a4.12,4.12,0,0,1,2.27-2.54,11.29,11.29,0,0,1,4.26-.57h13.61Z"/><path class="cls-4" d="M202.41,3.59,200.5,9.1a3.32,3.32,0,0,1,1-.54,6.88,6.88,0,0,1,2-.22h4.61a13.3,13.3,0,0,1,2.59.19,4.26,4.26,0,0,1,2.43,1.4,2.82,2.82,0,0,1,.78,1.84,4.65,4.65,0,0,1-.32,1.48l-2.07,5.95a4.17,4.17,0,0,0-.23,1.43,2.26,2.26,0,0,0,.23.94H201.26a8.73,8.73,0,0,0,.66-.76A8.87,8.87,0,0,0,203,18.5l2-5.81a2.76,2.76,0,0,0,.19-.85c0-.62-.6-.92-1.81-.93H201.7a2.93,2.93,0,0,0-1.59.32,2.48,2.48,0,0,0-.79,1.23L197,19.2a4.42,4.42,0,0,0-.23,1.43,2.35,2.35,0,0,0,.23.94H186.73c.3-.33.52-.58.65-.76a8.84,8.84,0,0,0,1.12-2.31L192.86,6a4.17,4.17,0,0,0,.24-1.43,2.25,2.25,0,0,0-.24-.94Z"/><path class="cls-4" d="M112.26,23.52l-.79,2.25H2.61A9.85,9.85,0,0,0,3.26,25a6.86,6.86,0,0,0,.81-1.49Z"/><path class="cls-3" d="M112.26,23.52l-.79,2.25H213.79c-.31-.33-.53-.59-.66-.76a7.35,7.35,0,0,1-.8-1.49Z"/></g></svg>