<svg id="Layer_1" data-name="Layer 1" xmlns="http://www.w3.org/2000/svg" xmlns:xlink="http://www.w3.org/1999/xlink" viewBox="0 0 148.3 45"><defs><style>.cls-1{fill:none;}.cls-2{clip-path:url(#clip-path);}.cls-3{fill:#939598;}.cls-4{fill:#6d6e71;}.cls-5{fill:#808285;}.cls-6{fill:#58595b;}.cls-7{fill:#a7a9ac;}.cls-8{fill:#231f20;}</style><clipPath id="clip-path"><rect class="cls-1" x="2" y="1.7" width="143.33" height="40.14"/></clipPath></defs><g class="cls-2"><path class="cls-3" d="M20.76,11.31a2.18,2.18,0,1,0,2.18-2.18,2.17,2.17,0,0,0-2.18,2.18m10.13-1c0-1.5-5.58-8.58-8-8.58s-8,7.08-8,8.58a12.28,12.28,0,0,0,0,1.3s4.74-4.48,8-4.48,8,4.48,8,4.48a12.28,12.28,0,0,0,0-1.3"/><path class="cls-4" d="M34,17.75a2.18,2.18,0,1,0,2.75,1.4A2.19,2.19,0,0,0,34,17.75m4.11,9.32c1.42-.47,6.43-8,5.69-10.22s-9.18-5.38-10.61-4.92a8.7,8.7,0,0,0-1.23.41s5.72,3.13,6.72,6.18-1.81,8.94-1.81,8.94-.19.07,1.24-.39"/><path class="cls-5" d="M32,32.35a2.18,2.18,0,1,0-.49,3,2.19,2.19,0,0,0,.49-3m-7.59,6.78c.88,1.22,9.55,3.67,11.48,2.26s2.28-10.4,1.4-11.61a10.94,10.94,0,0,0-.78-1.05s-1.2,6.42-3.8,8.3-9.06,1-9.06,1a7.92,7.92,0,0,0,.76,1.06"/><path class="cls-6" d="M17.46,34.93a2.18,2.18,0,1,0-3,.48,2.18,2.18,0,0,0,3-.48M8.67,29.8C7.79,31,8.14,40,10.07,41.42s10.59-1.05,11.48-2.26a10.07,10.07,0,0,0,.75-1.06s-6.47.84-9.06-1-3.8-8.3-3.8-8.3a10.88,10.88,0,0,0-.77,1"/><path class="cls-7" d="M10.53,21.92a2.18,2.18,0,1,0-1.4-2.75,2.18,2.18,0,0,0,1.4,2.75m2.16-10c-1.43-.46-9.88,2.65-10.62,4.92s4.27,9.75,5.7,10.22A11.41,11.41,0,0,0,9,27.5s-2.8-5.89-1.81-8.94,6.72-6.18,6.72-6.18A11.29,11.29,0,0,0,12.69,12"/><path class="cls-8" d="M142,22.06a2.31,2.31,0,0,1,.76,1.56c0,.51-.27.76-.8.76h-5.14a3.06,3.06,0,0,1,.69-1.75,3.35,3.35,0,0,1,2.83-1.36,2.25,2.25,0,0,1,1.66.79m.19,4.47a3.49,3.49,0,0,0,2.21-.72,2.35,2.35,0,0,0,.92-2,4.42,4.42,0,0,0-1.47-3.34,5,5,0,0,0-3.53-1.38,5.72,5.72,0,0,0-4.68,2,6.69,6.69,0,0,0-1.47,4.45,6.61,6.61,0,0,0,1.54,4.54A5.85,5.85,0,0,0,140.34,32a15.6,15.6,0,0,0,4.27-.67V29a12.66,12.66,0,0,1-4.27.83,3.32,3.32,0,0,1-2.69-1.26,3.13,3.13,0,0,1-.83-2Zm-8.71,4.92V29.22a11.43,11.43,0,0,1-3.38.62,3.45,3.45,0,0,1-2.77-1.21,4.52,4.52,0,0,1-1-3.06,4.59,4.59,0,0,1,1-3.08,3.45,3.45,0,0,1,2.77-1.22,11.77,11.77,0,0,1,3.38.62V19.66a14.84,14.84,0,0,0-3.38-.53A6.13,6.13,0,0,0,125.37,21a6.46,6.46,0,0,0-1.64,4.56,6.43,6.43,0,0,0,1.64,4.54A6.11,6.11,0,0,0,130.1,32a15,15,0,0,0,3.38-.54m-9.85-10.09V19.22c-.51,0-.95-.07-1.31-.07A14.11,14.11,0,0,0,117,20.22V31.83h2.56V21.66a10,10,0,0,1,2.65-.37l1.45.07M111.7,22.53a5.16,5.16,0,0,1,.85,3.14c0,2.77-1.15,4.15-3.48,4.15a3.16,3.16,0,0,1-2.69-1.28,5.13,5.13,0,0,1-.88-3.12c0-2.78,1.19-4.17,3.55-4.17a3.11,3.11,0,0,1,2.65,1.28m2,7.64a6.39,6.39,0,0,0,1.54-4.5,6.79,6.79,0,0,0-1.54-4.61,5.83,5.83,0,0,0-4.66-1.95,6.06,6.06,0,0,0-4.68,1.82,6.38,6.38,0,0,0-1.56,4.49A6.75,6.75,0,0,0,104.4,30,5.8,5.8,0,0,0,109.07,32a6,6,0,0,0,4.64-1.79m-11.41-14V13.94a8.42,8.42,0,0,0-2.07-.34,3.77,3.77,0,0,0-2.56.94,3,3,0,0,0-1.06,2.33v2.86H94.33v2.14h2.28v10h2.56v-10h3V19.73h-3V17a1.22,1.22,0,0,1,.36-.88,1.08,1.08,0,0,1,.81-.37,5.31,5.31,0,0,1,2,.39m-7.88,15.7-5.6-6.94,4.52-5.16H89.93L86.2,24.31V13.78H83.64v18H86.2V25.37l5,6.46Zm-13.14,0V23.79a4.44,4.44,0,0,0-1.36-3.36,5,5,0,0,0-3.56-1.28,22.55,22.55,0,0,0-5.73,1.45V31.86h2.56V22a8.69,8.69,0,0,1,3-.67A2.48,2.48,0,0,1,78,22a2.4,2.4,0,0,1,.7,1.8v8.07ZM65.7,22.06a2.31,2.31,0,0,1,.76,1.56c0,.51-.27.76-.81.76H60.52a3.06,3.06,0,0,1,.69-1.75A3.34,3.34,0,0,1,64,21.27a2.27,2.27,0,0,1,1.66.79m.19,4.47a3.49,3.49,0,0,0,2.21-.72,2.35,2.35,0,0,0,.92-2,4.4,4.4,0,0,0-1.48-3.34A4.91,4.91,0,0,0,64,19.13a5.72,5.72,0,0,0-4.68,2,6.69,6.69,0,0,0-1.48,4.45,6.61,6.61,0,0,0,1.55,4.54A5.83,5.83,0,0,0,64,32a15.6,15.6,0,0,0,4.27-.67V29a12.7,12.7,0,0,1-4.27.83,3.36,3.36,0,0,1-2.7-1.26,3.11,3.11,0,0,1-.82-2Zm-8.15-5.17V19.22c-.51,0-1-.07-1.32-.07a14.1,14.1,0,0,0-5.34,1.07V31.83h2.55V21.66a10,10,0,0,1,2.66-.37l1.45.07"/></g></svg>