<svg id="Layer_1" data-name="Layer 1" xmlns="http://www.w3.org/2000/svg" xmlns:xlink="http://www.w3.org/1999/xlink" viewBox="0 0 156.52 27.78"><defs><style>.cls-1{fill:none;}.cls-2{clip-path:url(#clip-path);}.cls-3{fill:#231f20;}</style><clipPath id="clip-path"><rect class="cls-1" x="1.57" y="1.8" width="152.6" height="24.76"/></clipPath></defs><g class="cls-2"><path class="cls-3" d="M150.49,23.16h.58c.39,0,.74-.05.83-.53s-.3-.49-.63-.49h-.59Zm-.38-1.52h1.32c.85,0,1.25.29,1.12,1a1.09,1.09,0,0,1-1.1.95l.66,1.56h-.67l-.64-1.53h-.4l-.28,1.53h-.66Zm3.25,1.79a2,2,0,0,0-1.91-2.53,3,3,0,0,0-2.83,2.53A2,2,0,0,0,150.53,26a3,3,0,0,0,2.83-2.52m-5.51,0a3.94,3.94,0,0,1,3.71-3.13,2.53,2.53,0,0,1,2.56,3.13,3.94,3.94,0,0,1-3.7,3.13,2.55,2.55,0,0,1-2.57-3.13"/><path class="cls-3" d="M139.4,2.18,138.33,6.8h3.73L137.6,26.14h5.76L147.82,6.8h3.73l1.06-4.62Zm-19.59,24h5.77l2.29-9.95h5.61l1.06-4.62h-5.6L130,6.8h6.26l1.06-4.62h-12ZM113,5.9,111.6,17.63h-2.88L112.89,5.9ZM99.8,26.14h5.77l1.57-4.26h4l-.45,4.26h6l.84-24H110ZM95,8.9c-.36,1.56-.66,2.82-2.63,2.82H91l1.26-5.46h1.13c2.25,0,2,1,1.65,2.64M101,8c1-4.32-.82-5.79-6-5.79H87.42l-5.53,24h5.77L90,15.8H91.1c1.63,0,2.06.6,1.74,2L92,21.61c-.36,1.59-.86,3.75-.38,4.53h5.7c-.48-.78.08-2.94.45-4.53l1-4.23a2.9,2.9,0,0,0-2.47-3.8v-.06c3.28-.9,4.11-2.73,4.76-5.55M76,1.8C71.7,1.8,68.05,4,67,8.72L64.46,19.6c-1,4.26,1.25,6.93,5.82,6.93a8.79,8.79,0,0,0,9-6.93l.7-3H74.24l-.81,3.51c-.15.63-.51,2.19-2.17,2.19s-1.3-1.56-1.15-2.19L72.84,8.24c.19-.81.51-2.19,2.17-2.19s1.34,1.38,1.15,2.19l-.62,2.7H81.3l.51-2.22C82.89,4,80.28,1.8,76,1.8M65.6,2.18H52.38L51.32,6.8H55L50.58,26.14h5.76L60.81,6.8h3.72Zm-19.82,0H40l-5.53,24h12l1.07-4.62H41.31Zm-17,6.06L26,20.08c-.14.63-.5,2.19-2.17,2.19s-1.3-1.56-1.15-2.19L25.43,8.24c.19-.81.51-2.19,2.17-2.19s1.34,1.38,1.16,2.19M28.58,1.8c-4.29,0-7.94,2.24-9,6.92L17.05,19.6c-1,4.26,1.25,6.93,5.82,6.93a8.79,8.79,0,0,0,9-6.93L34.4,8.72C35.49,4,32.87,1.8,28.58,1.8m-15.87.38-5.84,17H6.81l2.36-17H3.29l-1.72,24H8.71l9.79-24Z"/></g></svg>