<svg id="Layer_1" data-name="Layer 1" xmlns="http://www.w3.org/2000/svg" viewBox="0 0 10.57 7.41"><defs><style>.cls-1{fill:#231f20;}</style></defs><path class="cls-1" d="M4.77,2.73v2H5.4a1,1,0,0,0,.72-.28,1,1,0,0,0,.27-.73.94.94,0,0,0-1-1ZM3.92,5.42V2H5.2A3.06,3.06,0,0,1,6,2.12a1.61,1.61,0,0,1,.56.27A1.59,1.59,0,0,1,7.09,3a1.72,1.72,0,0,1,.17.75,1.63,1.63,0,0,1-.21.83,1.69,1.69,0,0,1-.58.61,1.63,1.63,0,0,1-.49.2,3.7,3.7,0,0,1-.78.06ZM9.74,3.75A1.87,1.87,0,0,0,9.58,3a2.4,2.4,0,0,0-.45-.69,3.72,3.72,0,0,0-.7-.58,5.4,5.4,0,0,0-.9-.45A7,7,0,0,0,6.46,1,6.59,6.59,0,0,0,5.27.87,6.67,6.67,0,0,0,4.08,1,6.56,6.56,0,0,0,3,1.26a5.51,5.51,0,0,0-.91.45,4.07,4.07,0,0,0-.7.58A2.63,2.63,0,0,0,1,3a1.87,1.87,0,0,0-.16.77A1.82,1.82,0,0,0,1,4.51a2.34,2.34,0,0,0,.45.69,4.11,4.11,0,0,0,.7.59A5.51,5.51,0,0,0,3,6.24a6.56,6.56,0,0,0,1.06.29,6.59,6.59,0,0,0,1.19.1,6.59,6.59,0,0,0,1.19-.1,7,7,0,0,0,1.07-.29,5.4,5.4,0,0,0,.9-.45,3.76,3.76,0,0,0,.7-.59,2.16,2.16,0,0,0,.45-.69,1.82,1.82,0,0,0,.16-.76M5.27.21A7.21,7.21,0,0,1,7.21.46a5.47,5.47,0,0,1,1.64.75A3.77,3.77,0,0,1,10,2.33a2.62,2.62,0,0,1,.43,1.42A2.68,2.68,0,0,1,10,5.18,3.89,3.89,0,0,1,8.85,6.3,5.71,5.71,0,0,1,7.21,7a7.21,7.21,0,0,1-1.94.25A7.14,7.14,0,0,1,3.34,7,5.77,5.77,0,0,1,1.69,6.3,3.85,3.85,0,0,1,.57,5.18,2.6,2.6,0,0,1,.14,3.75,2.54,2.54,0,0,1,.57,2.33,3.73,3.73,0,0,1,1.69,1.21,5.52,5.52,0,0,1,3.34.46,7.14,7.14,0,0,1,5.27.21"/></svg>