<svg id="Layer_1" data-name="Layer 1" xmlns="http://www.w3.org/2000/svg" viewBox="0 0 10.57 7.41"><defs><style>.cls-1{fill:#231f20;}</style></defs><path class="cls-1" d="M6.51,4.8H7a1,1,0,0,0,.47-.09.34.34,0,0,0,.14-.31.37.37,0,0,0-.15-.32A.83.83,0,0,0,7,4H6.51Zm.43-1.43.21,0a.61.61,0,0,0,.14-.07A.32.32,0,0,0,7.4,3a.35.35,0,0,0-.11-.29.5.5,0,0,0-.35-.1H6.51v.74ZM5.66,5.42V2H6.9a1.94,1.94,0,0,1,1,.22.72.72,0,0,1,.34.65.75.75,0,0,1-.11.4.76.76,0,0,1-.34.26,1.1,1.1,0,0,1,.53.33.87.87,0,0,1,.18.56.85.85,0,0,1-.33.73,1.77,1.77,0,0,1-1,.24ZM5.07,5a2.3,2.3,0,0,1-.66.34,2.33,2.33,0,0,1-.76.11,2.34,2.34,0,0,1-.38,0,1.06,1.06,0,0,1-.35-.09A1.53,1.53,0,0,1,2.34,5,1.65,1.65,0,0,1,2,4.43a1.82,1.82,0,0,1-.14-.7,1.67,1.67,0,0,1,.53-1.28A2,2,0,0,1,3.73,2,2.59,2.59,0,0,1,4.36,2,3.1,3.1,0,0,1,5,2.28V3l-.33-.15-.31-.11a2.51,2.51,0,0,0-.57-.08A1.11,1.11,0,0,0,3,3a1,1,0,0,0-.29.77A1,1,0,0,0,3,4.49a1,1,0,0,0,.75.28h.13l.12,0,.13,0,.12,0V4.25H3.74V3.61H5.07ZM9.73,3.75A1.87,1.87,0,0,0,9.57,3a2.4,2.4,0,0,0-.45-.69,3.72,3.72,0,0,0-.7-.58,5.4,5.4,0,0,0-.9-.45A7,7,0,0,0,6.45,1,6.59,6.59,0,0,0,5.26.87,6.67,6.67,0,0,0,4.07,1,6.56,6.56,0,0,0,3,1.26a5.51,5.51,0,0,0-.91.45,4.07,4.07,0,0,0-.7.58A2.63,2.63,0,0,0,1,3a1.87,1.87,0,0,0-.16.77A1.82,1.82,0,0,0,1,4.51a2.34,2.34,0,0,0,.45.69,4.11,4.11,0,0,0,.7.59A5.51,5.51,0,0,0,3,6.24a6.56,6.56,0,0,0,1.06.29,6.59,6.59,0,0,0,1.19.1,6.59,6.59,0,0,0,1.19-.1,7,7,0,0,0,1.07-.29,5.4,5.4,0,0,0,.9-.45,3.76,3.76,0,0,0,.7-.59,2.16,2.16,0,0,0,.45-.69,1.82,1.82,0,0,0,.16-.76M5.26.21A7.21,7.21,0,0,1,7.2.46a5.47,5.47,0,0,1,1.64.75A3.77,3.77,0,0,1,10,2.33a2.62,2.62,0,0,1,.43,1.42A2.68,2.68,0,0,1,10,5.18,3.89,3.89,0,0,1,8.84,6.3,5.71,5.71,0,0,1,7.2,7a7.21,7.21,0,0,1-1.94.25A7.14,7.14,0,0,1,3.33,7,5.77,5.77,0,0,1,1.68,6.3,3.85,3.85,0,0,1,.56,5.18,2.6,2.6,0,0,1,.13,3.75,2.54,2.54,0,0,1,.56,2.33,3.73,3.73,0,0,1,1.68,1.21,5.52,5.52,0,0,1,3.33.46,7.14,7.14,0,0,1,5.26.21"/></svg>