<svg id="Layer_1" data-name="Layer 1" xmlns="http://www.w3.org/2000/svg" viewBox="0 0 10.57 7.41"><defs><style>.cls-1{fill:#231f20;}</style></defs><path class="cls-1" d="M4.13,5.42V2H6.32v.63H5v.73H6.24V4H5v1.4ZM9.67,3.75A1.87,1.87,0,0,0,9.51,3a2.4,2.4,0,0,0-.45-.69,3.72,3.72,0,0,0-.7-.58,5.14,5.14,0,0,0-.91-.45A6.83,6.83,0,0,0,4,1a7,7,0,0,0-1.07.29,5.4,5.4,0,0,0-.9.45,3.72,3.72,0,0,0-.7.58A2.4,2.4,0,0,0,.89,3a1.87,1.87,0,0,0-.16.77,1.82,1.82,0,0,0,.16.76,2.16,2.16,0,0,0,.45.69,3.76,3.76,0,0,0,.7.59,5.4,5.4,0,0,0,.9.45A7,7,0,0,0,4,6.53a6.59,6.59,0,0,0,1.19.1,6.59,6.59,0,0,0,1.19-.1,6.56,6.56,0,0,0,1.06-.29,5.14,5.14,0,0,0,.91-.45,3.76,3.76,0,0,0,.7-.59,2.16,2.16,0,0,0,.45-.69,1.82,1.82,0,0,0,.16-.76M5.2.21A7.27,7.27,0,0,1,7.14.46a5.47,5.47,0,0,1,1.64.75A3.89,3.89,0,0,1,9.91,2.33a2.61,2.61,0,0,1,.42,1.42,2.67,2.67,0,0,1-.42,1.43A4,4,0,0,1,8.78,6.3,5.71,5.71,0,0,1,7.14,7a7.27,7.27,0,0,1-1.94.25A7.27,7.27,0,0,1,3.26,7,5.71,5.71,0,0,1,1.62,6.3,3.85,3.85,0,0,1,.5,5.18,2.6,2.6,0,0,1,.07,3.75,2.54,2.54,0,0,1,.5,2.33,3.73,3.73,0,0,1,1.62,1.21,5.47,5.47,0,0,1,3.26.46,7.27,7.27,0,0,1,5.2.21"/></svg>