<?xml version="1.0" encoding="utf-8"?>
<!-- Generator: Adobe Illustrator 25.1.0, SVG Export Plug-In . SVG Version: 6.00 Build 0)  -->
<svg version="1.1" id="Layer_1" xmlns="http://www.w3.org/2000/svg" xmlns:xlink="http://www.w3.org/1999/xlink" x="0px" y="0px"
	 viewBox="0 0 23.8 22.3" style="enable-background:new 0 0 23.8 22.3;" xml:space="preserve">
<style type="text/css">
	.st0{fill:#231F20;}
</style>
<path class="st0" d="M1.7,18c-0.5,0.7-0.5,1.7-0.1,2.5c0.2,0.4,0.6,0.6,1.1,0.6h18.2c0.6,0,1.2-0.2,1.6-0.7c0.2-0.6,0.2-1.4-0.2-2
	c-0.1-0.1-0.1-0.2-0.2-0.3c-0.1-0.2-0.2-0.4-0.4-0.8c-0.3-0.6-0.8-1.4-1.4-2.6c-1.1-2.1-2.6-4.8-3.9-7.1c-1.5-2.7-2.9-5.2-3-5.6V2v0
	C13,1.5,12.5,1.3,12,1.3c-0.5,0-1,0.2-1.2,0.6L1.7,18z M2.7,22.2L2.7,22.2c-0.8,0-1.6-0.4-2-1.1c-0.6-1.1-0.6-2.5,0.1-3.6l0,0
	l8.9-16c0.4-0.8,1.3-1.3,2.2-1.3c0.9,0,1.8,0.5,2.3,1.3c0.1,0.2,0.7,1.2,3.1,5.6c2,3.7,5,9.2,5.7,10.4l0,0l0.2,0.3
	c0.6,0.9,0.7,2.1,0.3,3.1c-0.5,0.9-1.5,1.4-2.5,1.3l0,0h-18L2.7,22.2"/>
<path class="st0" d="M13.2,4.4l-0.5,10.4h-1.8l-0.5-9.9L13.2,4.4z M13.3,17.9c0,0.4-0.2,0.8-0.5,1.1c-0.3,0.3-0.7,0.5-1.1,0.5
	c-0.4,0-0.8-0.1-1.1-0.4c-0.3-0.3-0.4-0.7-0.4-1.1c0-0.4,0.2-0.8,0.4-1.1c0.6-0.6,1.6-0.6,2.2,0C13.2,17.1,13.3,17.5,13.3,17.9"/>
</svg>
